<svg width="160" height="56" viewBox="0 0 160 56" fill="none" xmlns="http://www.w3.org/2000/svg">
<rect x="0.5" y="0.5" width="159" height="55" rx="9.5" stroke="#0ABDDB"/>
<path d="M43.0019 18.6673L42.5299 18.1953L43.0019 17.7246L43.4739 18.1953L43.0019 18.6673ZM43.6686 30.6673C43.6686 30.8441 43.5984 31.0137 43.4734 31.1387C43.3483 31.2637 43.1788 31.3339 43.0019 31.3339C42.8251 31.3339 42.6556 31.2637 42.5305 31.1387C42.4055 31.0137 42.3353 30.8441 42.3353 30.6673H43.6686ZM35.8633 24.8619L42.5299 18.1953L43.4739 19.1393L36.8073 25.8059L35.8633 24.8619ZM43.4739 18.1953L50.1406 24.8619L49.1966 25.8059L42.5299 19.1393L43.4739 18.1953ZM43.6686 18.6673V30.6673H42.3353V18.6673H43.6686Z" fill="#0ABDDB"/>
<path d="M33.668 33.334V34.6673C33.668 35.3746 33.9489 36.0528 34.449 36.5529C34.9491 37.053 35.6274 37.334 36.3346 37.334H49.668C50.3752 37.334 51.0535 37.053 51.5536 36.5529C52.0537 36.0528 52.3346 35.3746 52.3346 34.6673V33.334" stroke="#0ABDDB" stroke-width="1.33333"/>
<path d="M69.4347 35V20.4545H78.8949V22.6634H72.0696V26.6122H78.4048V28.821H72.0696V32.7912H78.9517V35H69.4347ZM83.5717 24.0909L85.7734 28.1179L88.0107 24.0909H90.7308L87.4425 29.5455L90.7876 35H88.0817L85.7734 31.0724L83.4865 35H80.7592L84.0831 29.5455L80.8445 24.0909H83.5717ZM92.7195 39.0909V24.0909H95.2479V25.8949H95.397C95.5296 25.6297 95.7166 25.348 95.9581 25.0497C96.1996 24.7467 96.5263 24.4886 96.9382 24.2756C97.3501 24.0578 97.8757 23.9489 98.5149 23.9489C99.3577 23.9489 100.118 24.1643 100.795 24.5952C101.477 25.0213 102.016 25.6534 102.414 26.4915C102.817 27.3248 103.018 28.3475 103.018 29.5597C103.018 30.7576 102.821 31.7756 102.428 32.6136C102.035 33.4517 101.5 34.0909 100.823 34.5312C100.146 34.9716 99.379 35.1918 98.522 35.1918C97.897 35.1918 97.3786 35.0876 96.9666 34.8793C96.5547 34.6709 96.2232 34.42 95.9723 34.1264C95.7261 33.8281 95.5343 33.5464 95.397 33.2812H95.2905V39.0909H92.7195ZM95.2408 29.5455C95.2408 30.2509 95.3402 30.8688 95.5391 31.3991C95.7427 31.9295 96.0339 32.3437 96.4126 32.642C96.7962 32.9356 97.2602 33.0824 97.8047 33.0824C98.3729 33.0824 98.8487 32.9309 99.2322 32.6278C99.6158 32.3201 99.9046 31.901 100.099 31.3707C100.298 30.8357 100.397 30.2273 100.397 29.5455C100.397 28.8684 100.3 28.267 100.106 27.7415C99.9117 27.2159 99.6229 26.804 99.2393 26.5057C98.8558 26.2074 98.3776 26.0582 97.8047 26.0582C97.2554 26.0582 96.7891 26.2027 96.4055 26.4915C96.022 26.7803 95.7308 27.1851 95.532 27.706C95.3378 28.2268 95.2408 28.84 95.2408 29.5455ZM109.978 35.2131C108.913 35.2131 107.989 34.9787 107.208 34.5099C106.427 34.0412 105.821 33.3854 105.39 32.5426C104.964 31.6998 104.751 30.715 104.751 29.5881C104.751 28.4612 104.964 27.474 105.39 26.6264C105.821 25.7789 106.427 25.1207 107.208 24.652C107.989 24.1832 108.913 23.9489 109.978 23.9489C111.043 23.9489 111.967 24.1832 112.748 24.652C113.529 25.1207 114.133 25.7789 114.559 26.6264C114.99 27.474 115.205 28.4612 115.205 29.5881C115.205 30.715 114.99 31.6998 114.559 32.5426C114.133 33.3854 113.529 34.0412 112.748 34.5099C111.967 34.9787 111.043 35.2131 109.978 35.2131ZM109.992 33.1534C110.57 33.1534 111.053 32.9948 111.441 32.6776C111.829 32.3556 112.118 31.9247 112.308 31.3849C112.502 30.8452 112.599 30.2438 112.599 29.581C112.599 28.9134 112.502 28.3097 112.308 27.7699C112.118 27.2254 111.829 26.7921 111.441 26.4702C111.053 26.1482 110.57 25.9872 109.992 25.9872C109.4 25.9872 108.908 26.1482 108.515 26.4702C108.127 26.7921 107.835 27.2254 107.641 27.7699C107.452 28.3097 107.357 28.9134 107.357 29.581C107.357 30.2438 107.452 30.8452 107.641 31.3849C107.835 31.9247 108.127 32.3556 108.515 32.6776C108.908 32.9948 109.4 33.1534 109.992 33.1534ZM117.387 35V24.0909H119.88V25.9091H119.994C120.193 25.2794 120.534 24.794 121.017 24.4531C121.504 24.1075 122.061 23.9347 122.686 23.9347C122.828 23.9347 122.986 23.9418 123.162 23.956C123.342 23.9654 123.491 23.982 123.609 24.0057V26.3707C123.5 26.3329 123.327 26.2997 123.091 26.2713C122.859 26.2382 122.634 26.2216 122.416 26.2216C121.947 26.2216 121.526 26.3234 121.152 26.527C120.782 26.7259 120.491 27.0028 120.278 27.358C120.065 27.7131 119.958 28.1226 119.958 28.5866V35H117.387ZM131.35 24.0909V26.0795H125.079V24.0909H131.35ZM126.627 21.4773H129.199V31.7188C129.199 32.0644 129.251 32.3295 129.355 32.5142C129.464 32.6941 129.606 32.8172 129.781 32.8835C129.956 32.9498 130.15 32.983 130.363 32.983C130.524 32.983 130.671 32.9711 130.804 32.9474C130.941 32.9238 131.045 32.9025 131.116 32.8835L131.549 34.8935C131.412 34.9408 131.216 34.9929 130.96 35.0497C130.709 35.1065 130.401 35.1397 130.037 35.1491C129.393 35.1681 128.813 35.071 128.297 34.858C127.78 34.6402 127.371 34.304 127.068 33.8494C126.77 33.3949 126.623 32.8267 126.627 32.1449V21.4773Z" fill="#0ABDDB"/>
</svg>
