<svg width="160" height="56" viewBox="0 0 160 56" fill="none" xmlns="http://www.w3.org/2000/svg">
<rect x="0.5" y="0.5" width="159" height="55" rx="9.5" fill="#0ABDDB" stroke="#0ABDDB"/>
<path d="M43 30.6667L42.528 31.1387L43 31.6093L43.472 31.1387L43 30.6667ZM43.6667 18.6667C43.6667 18.4899 43.5964 18.3203 43.4714 18.1953C43.3464 18.0702 43.1768 18 43 18C42.8232 18 42.6536 18.0702 42.5286 18.1953C42.4036 18.3203 42.3333 18.4899 42.3333 18.6667H43.6667ZM35.8613 24.472L42.528 31.1387L43.472 30.1947L36.8053 23.528L35.8613 24.472ZM43.472 31.1387L50.1387 24.472L49.1947 23.528L42.528 30.1947L43.472 31.1387ZM43.6667 30.6667V18.6667H42.3333V30.6667H43.6667Z" fill="white"/>
<path d="M33.666 33.334V34.6673C33.666 35.3746 33.947 36.0528 34.4471 36.5529C34.9472 37.053 35.6254 37.334 36.3327 37.334H49.666C50.3733 37.334 51.0515 37.053 51.5516 36.5529C52.0517 36.0528 52.3327 35.3746 52.3327 34.6673V33.334" stroke="white" stroke-width="1.33333"/>
<path d="M72.0696 20.4545V35H69.4347V20.4545H72.0696ZM74.8093 35V24.0909H77.2667V25.9446H77.3945C77.6218 25.3196 77.9982 24.8319 78.5238 24.4815C79.0494 24.1264 79.6767 23.9489 80.4059 23.9489C81.1445 23.9489 81.7672 24.1288 82.2738 24.4886C82.7852 24.8437 83.145 25.3291 83.3533 25.9446H83.467C83.7085 25.3385 84.1156 24.8556 84.6886 24.4957C85.2662 24.1312 85.9504 23.9489 86.7411 23.9489C87.7449 23.9489 88.564 24.2661 89.1985 24.9006C89.833 25.535 90.1502 26.4607 90.1502 27.6776V35H87.5721V28.0753C87.5721 27.3982 87.3922 26.9034 87.0323 26.5909C86.6725 26.2737 86.2321 26.1151 85.7113 26.1151C85.091 26.1151 84.6057 26.3092 84.2553 26.6974C83.9097 27.081 83.7369 27.5805 83.7369 28.196V35H81.2156V27.9688C81.2156 27.4053 81.0451 26.9555 80.7042 26.6193C80.368 26.2831 79.9277 26.1151 79.3832 26.1151C79.0138 26.1151 78.6777 26.2098 78.3746 26.3991C78.0716 26.5838 77.8301 26.8466 77.6502 27.1875C77.4703 27.5237 77.3803 27.9167 77.3803 28.3665V35H74.8093ZM92.7585 39.0909V24.0909H95.2869V25.8949H95.4361C95.5687 25.6297 95.7557 25.348 95.9972 25.0497C96.2386 24.7467 96.5653 24.4886 96.9773 24.2756C97.3892 24.0578 97.9148 23.9489 98.554 23.9489C99.3968 23.9489 100.157 24.1643 100.834 24.5952C101.516 25.0213 102.055 25.6534 102.453 26.4915C102.856 27.3248 103.057 28.3475 103.057 29.5597C103.057 30.7576 102.86 31.7756 102.467 32.6136C102.074 33.4517 101.539 34.0909 100.862 34.5312C100.185 34.9716 99.4181 35.1918 98.5611 35.1918C97.9361 35.1918 97.4176 35.0876 97.0057 34.8793C96.5938 34.6709 96.2623 34.42 96.0114 34.1264C95.7652 33.8281 95.5734 33.5464 95.4361 33.2812H95.3295V39.0909H92.7585ZM95.2798 29.5455C95.2798 30.2509 95.3793 30.8688 95.5781 31.3991C95.7817 31.9295 96.0729 32.3437 96.4517 32.642C96.8352 32.9356 97.2992 33.0824 97.8438 33.0824C98.4119 33.0824 98.8878 32.9309 99.2713 32.6278C99.6548 32.3201 99.9437 31.901 100.138 31.3707C100.337 30.8357 100.436 30.2273 100.436 29.5455C100.436 28.8684 100.339 28.267 100.145 27.7415C99.9508 27.2159 99.6619 26.804 99.2784 26.5057C98.8949 26.2074 98.4167 26.0582 97.8438 26.0582C97.2945 26.0582 96.8281 26.2027 96.4446 26.4915C96.0611 26.7803 95.7699 27.1851 95.571 27.706C95.3769 28.2268 95.2798 28.84 95.2798 29.5455ZM110.017 35.2131C108.952 35.2131 108.028 34.9787 107.247 34.5099C106.466 34.0412 105.86 33.3854 105.429 32.5426C105.003 31.6998 104.79 30.715 104.79 29.5881C104.79 28.4612 105.003 27.474 105.429 26.6264C105.86 25.7789 106.466 25.1207 107.247 24.652C108.028 24.1832 108.952 23.9489 110.017 23.9489C111.082 23.9489 112.006 24.1832 112.787 24.652C113.568 25.1207 114.172 25.7789 114.598 26.6264C115.029 27.474 115.244 28.4612 115.244 29.5881C115.244 30.715 115.029 31.6998 114.598 32.5426C114.172 33.3854 113.568 34.0412 112.787 34.5099C112.006 34.9787 111.082 35.2131 110.017 35.2131ZM110.031 33.1534C110.609 33.1534 111.092 32.9948 111.48 32.6776C111.868 32.3556 112.157 31.9247 112.347 31.3849C112.541 30.8452 112.638 30.2438 112.638 29.581C112.638 28.9134 112.541 28.3097 112.347 27.7699C112.157 27.2254 111.868 26.7921 111.48 26.4702C111.092 26.1482 110.609 25.9872 110.031 25.9872C109.439 25.9872 108.947 26.1482 108.554 26.4702C108.166 26.7921 107.875 27.2254 107.68 27.7699C107.491 28.3097 107.396 28.9134 107.396 29.581C107.396 30.2438 107.491 30.8452 107.68 31.3849C107.875 31.9247 108.166 32.3556 108.554 32.6776C108.947 32.9948 109.439 33.1534 110.031 33.1534ZM117.426 35V24.0909H119.919V25.9091H120.033C120.232 25.2794 120.573 24.794 121.056 24.4531C121.543 24.1075 122.1 23.9347 122.725 23.9347C122.867 23.9347 123.025 23.9418 123.201 23.956C123.381 23.9654 123.53 23.982 123.648 24.0057V26.3707C123.539 26.3329 123.366 26.2997 123.13 26.2713C122.898 26.2382 122.673 26.2216 122.455 26.2216C121.986 26.2216 121.565 26.3234 121.191 26.527C120.821 26.7259 120.53 27.0028 120.317 27.358C120.104 27.7131 119.998 28.1226 119.998 28.5866V35H117.426ZM131.39 24.0909V26.0795H125.118V24.0909H131.39ZM126.667 21.4773H129.238V31.7188C129.238 32.0644 129.29 32.3295 129.394 32.5142C129.503 32.6941 129.645 32.8172 129.82 32.8835C129.995 32.9498 130.189 32.983 130.402 32.983C130.563 32.983 130.71 32.9711 130.843 32.9474C130.98 32.9238 131.084 32.9025 131.155 32.8835L131.588 34.8935C131.451 34.9408 131.255 34.9929 130.999 35.0497C130.748 35.1065 130.44 35.1397 130.076 35.1491C129.432 35.1681 128.852 35.071 128.336 34.858C127.819 34.6402 127.41 34.304 127.107 33.8494C126.809 33.3949 126.662 32.8267 126.667 32.1449V21.4773Z" fill="white"/>
</svg>
