<svg width="64" height="64" viewBox="0 0 64 64" fill="none" xmlns="http://www.w3.org/2000/svg">
<path d="M58.6673 37.3333H53.334V19.3013L32.1926 38.2347L10.6673 19.2427V50.6667H37.334V56H8.00065C7.29341 56 6.61513 55.7191 6.11503 55.219C5.61494 54.7189 5.33398 54.0406 5.33398 53.3333V10.6667C5.33398 9.95942 5.61494 9.28115 6.11503 8.78105C6.61513 8.28095 7.29341 8 8.00065 8H56.0007C56.7079 8 57.3862 8.28095 57.8863 8.78105C58.3864 9.28115 58.6673 9.95942 58.6673 10.6667V37.3333ZM12.03 13.3333L32.1633 31.0987L52.006 13.3333H12.03ZM50.6673 58.6667L41.238 49.24L45.0113 45.4667L50.6673 51.1253L60.094 41.696L63.8673 45.4667L50.6673 58.6667Z" fill="#0ABDDB"/>
</svg>
