<svg width="64" height="64" viewBox="0 0 64 64" fill="none" xmlns="http://www.w3.org/2000/svg">
<path d="M58.6654 37.3333H53.332V19.3013L32.1907 38.2347L10.6654 19.2427V50.6667H37.332V56H7.9987C7.29145 56 6.61318 55.7191 6.11308 55.219C5.61298 54.7189 5.33203 54.0406 5.33203 53.3333V10.6667C5.33203 9.95942 5.61298 9.28115 6.11308 8.78105C6.61318 8.28095 7.29145 8 7.9987 8H55.9987C56.7059 8 57.3842 8.28095 57.8843 8.78105C58.3844 9.28115 58.6654 9.95942 58.6654 10.6667V37.3333ZM12.028 13.3333L32.1614 31.0987L52.004 13.3333H12.028ZM50.6654 58.6667L41.236 49.24L45.0094 45.4667L50.6654 51.1253L60.092 41.696L63.8654 45.4667L50.6654 58.6667Z" fill="#0ABDDB"/>
</svg>
