<svg width="56" height="57" viewBox="0 0 56 57" fill="none" xmlns="http://www.w3.org/2000/svg">
<g clip-path="url(#clip0_1641_3241)">
<path d="M27.5 13.7273V21.3636L38.75 11.1818L27.5 1V8.63636C15.0687 8.63636 5 17.7491 5 29C5 32.9964 6.29375 36.7127 8.4875 39.8436L12.5937 36.1273C11.2957 33.9357 10.6192 31.4866 10.625 29C10.625 20.5745 18.1906 13.7273 27.5 13.7273ZM46.5125 18.1564L42.4062 21.8727C43.6437 24.0109 44.375 26.4291 44.375 29C44.375 37.4255 36.8094 44.2727 27.5 44.2727V36.6364L16.25 46.8182L27.5 57V49.3636C39.9313 49.3636 50 40.2509 50 29C50 25.0036 48.7062 21.2873 46.5125 18.1564Z" fill="#545454"/>
</g>
<defs>
<clipPath id="clip0_1641_3241">
<rect width="56" height="56" fill="white" transform="translate(0 0.5)"/>
</clipPath>
</defs>
</svg>
