<svg width="80" height="80" viewBox="0 0 80 80" fill="none" xmlns="http://www.w3.org/2000/svg">
<path d="M69.3344 25.9878C72.8036 33.2434 73.4621 41.5269 71.183 49.2395C68.9039 56.9522 63.8487 63.5472 56.993 67.7518C50.1373 71.9564 41.9671 73.4725 34.0593 72.0075C26.1516 70.5424 19.0668 66.2001 14.1723 59.8186C9.27782 53.4371 6.92066 45.4688 7.55575 37.4516C8.19083 29.4344 11.7731 21.9366 17.6113 16.4053C23.4494 10.874 31.1295 7.70126 39.1693 7.49951C47.2091 7.29775 55.0387 10.0812 61.1469 15.3128L68.2313 8.22527C68.7004 7.75617 69.3366 7.49263 70 7.49263C70.6634 7.49263 71.2997 7.75617 71.7688 8.22527C72.2379 8.69437 72.5014 9.33061 72.5014 9.99402C72.5014 10.6574 72.2379 11.2937 71.7688 11.7628L41.7688 41.7628C41.2997 42.2319 40.6634 42.4954 40 42.4954C39.3366 42.4954 38.7004 42.2319 38.2313 41.7628C37.7622 41.2937 37.4986 40.6574 37.4986 39.994C37.4986 39.3306 37.7622 38.6944 38.2313 38.2253L46.8938 29.5628C44.5461 28.0101 41.7432 27.2952 38.9387 27.5338C36.1342 27.7725 33.4923 28.9506 31.4407 30.8775C29.3891 32.8045 28.0479 35.3674 27.6341 38.1515C27.2204 40.9355 27.7584 43.7777 29.161 46.218C30.5636 48.6582 32.7488 50.5537 35.3627 51.5975C37.9766 52.6413 40.8663 52.7724 43.564 51.9695C46.2617 51.1666 48.6095 49.4768 50.2273 47.1735C51.845 44.8703 52.6381 42.0885 52.4782 39.2784C52.4597 38.9501 52.5061 38.6214 52.6146 38.311C52.7232 38.0006 52.8919 37.7146 53.111 37.4694C53.33 37.2242 53.5953 37.0246 53.8915 36.8819C54.1878 36.7392 54.5092 36.6562 54.8375 36.6378C55.5006 36.6005 56.1513 36.8281 56.6465 37.2706C56.8917 37.4897 57.0913 37.7549 57.234 38.0511C57.3767 38.3474 57.4597 38.6688 57.4782 38.9971C57.7061 42.9746 56.57 46.9107 54.2578 50.155C51.9456 53.3993 48.5956 55.7576 44.7615 56.84C40.9274 57.9224 36.8387 57.6642 33.1713 56.1081C29.5038 54.5519 26.4771 51.791 24.5913 48.2816C22.7056 44.7722 22.0738 40.7244 22.8002 36.8072C23.5267 32.89 25.568 29.338 28.5867 26.7382C31.6054 24.1383 35.4209 22.6463 39.4025 22.5087C43.3841 22.3712 47.2934 23.5962 50.4844 25.9815L57.5938 18.8721C52.3838 14.5465 45.7593 12.2983 38.9927 12.5593C32.2261 12.8202 25.7945 15.572 20.9331 20.2861C16.0718 25.0002 13.1235 31.3441 12.6545 38.0995C12.1856 44.8549 14.229 51.5454 18.3924 56.8859C22.5558 62.2265 28.5455 65.8406 35.2111 67.034C41.8768 68.2274 48.7484 66.9161 54.5061 63.3518C60.2638 59.7875 64.5016 54.2217 66.4057 47.7232C68.3097 41.2248 67.7457 34.2519 64.8219 28.144C64.536 27.5456 64.4995 26.8581 64.7204 26.2328C64.9413 25.6075 65.4016 25.0956 66 24.8096C66.5984 24.5237 67.2859 24.4872 67.9112 24.7081C68.5365 24.9291 69.0485 25.3894 69.3344 25.9878Z" fill="#545454"/>
</svg>
