<svg width="80" height="81" viewBox="0 0 80 81" fill="none" xmlns="http://www.w3.org/2000/svg">
<path d="M68 4.5H60C58.9391 4.5 57.9217 4.92143 57.1716 5.67157C56.4214 6.42172 56 7.43913 56 8.5V76.468H72V8.5C72 7.43913 71.5786 6.42172 70.8284 5.67157C70.0783 4.92143 69.0609 4.5 68 4.5ZM44 28.5H36C34.9391 28.5 33.9217 28.9214 33.1716 29.6716C32.4214 30.4217 32 31.4391 32 32.5V76.468H48V32.5C48 31.4391 47.5786 30.4217 46.8284 29.6716C46.0783 28.9214 45.0609 28.5 44 28.5ZM20 52.5H12C10.9391 52.5 9.92172 52.9214 9.17157 53.6716C8.42143 54.4217 8 55.4391 8 56.5V76.468H24V56.5C24 55.4391 23.5786 54.4217 22.8284 53.6716C22.0783 52.9214 21.0609 52.5 20 52.5Z" fill="#545454"/>
</svg>
