<svg width="65" height="56" viewBox="0 0 65 56" fill="none" xmlns="http://www.w3.org/2000/svg">
<path fill-rule="evenodd" clip-rule="evenodd" d="M31.3665 46.7705H3.71897C1.66643 46.7705 0 45.1042 0 43.0517V7.86743C0 5.81446 1.66643 4.14773 3.71897 4.14773H9.10368V1.80386C9.10368 0.808418 9.91191 0.000232697 10.9073 0.000232697H11.8649C12.8605 0.000232697 13.6688 0.808418 13.6688 1.80386V4.14773H37.0986V1.80386C37.0986 0.808418 37.9068 0.000232697 38.9022 0.000232697H39.8595C40.8554 0.000232697 41.6631 0.808418 41.6631 1.80386V4.14773H47.0481C49.1006 4.14773 50.7673 5.81446 50.7673 7.86743V26.0694C49.6472 25.6387 48.4635 25.3365 47.2353 25.1796V15.1142H3.53191V43.2732H30.2425C30.4776 44.497 30.8585 45.6689 31.3665 46.7705Z" fill="#545454"/>
<path fill-rule="evenodd" clip-rule="evenodd" d="M64.1941 34.3642L60.6805 41.7783L54.5469 36.3296L64.1941 34.3642Z" fill="#0ABDDB"/>
<path d="M47.5533 56C39.7117 56 33.332 49.6202 33.332 41.7788C33.332 33.9376 39.7117 27.558 47.5533 27.558C52.9587 27.558 57.8305 30.5639 60.2636 35.4011C60.3965 35.6619 60.5221 35.9333 60.6377 36.2067C60.875 36.7643 60.614 37.4053 60.0585 37.6402C59.5074 37.8795 58.86 37.619 58.6252 37.0612C58.5268 36.8304 58.4221 36.6063 58.3109 36.3861C56.2494 32.2904 52.1274 29.7455 47.5533 29.7455C40.9191 29.7455 35.52 35.1447 35.52 41.7788C35.52 48.4129 40.9191 53.8121 47.5533 53.8121C52.4783 53.8121 56.8558 50.8614 58.7102 46.2934C58.9346 45.7359 59.5672 45.4622 60.1356 45.693C60.6956 45.9195 60.9644 46.5563 60.7361 47.1182C58.5481 52.513 53.3734 56 47.5533 56Z" fill="#0ABDDB"/>
<path fill-rule="evenodd" clip-rule="evenodd" d="M35.8477 31.247V30.471H36.6651C36.3818 30.7179 36.109 30.9769 35.8477 31.247ZM14.9189 18.796C14.9189 20.0035 13.9386 20.9838 12.731 20.9838H12.6498C11.4423 20.9838 10.4619 20.0035 10.4619 18.796C10.4619 17.5885 11.4423 16.6081 12.6498 16.6081H12.731C13.9386 16.6081 14.9189 17.5885 14.9189 18.796ZM10.4619 27.9155H14.9189V23.5394H10.4619V27.9155ZM10.4619 34.8467H14.9189V30.471H10.4619V34.8467ZM10.4619 41.7783H14.9189V37.4026H10.4619V41.7783ZM23.3808 18.796C23.3808 20.0035 22.4005 20.9838 21.193 20.9838H21.1117C19.9042 20.9838 18.9237 20.0035 18.9237 18.796C18.9237 17.5885 19.9042 16.6081 21.1117 16.6081H21.193C22.4005 16.6081 23.3808 17.5885 23.3808 18.796ZM18.9237 27.9155H23.3808V23.5394H18.9237V27.9155ZM18.9237 34.8467H23.3808V30.471H18.9237V34.8467ZM18.9237 41.7783H23.3808V37.4026H18.9237V41.7783ZM31.8428 18.796C31.8428 20.0035 30.8624 20.9838 29.6549 20.9838H29.5736C28.3661 20.9838 27.3858 20.0035 27.3858 18.796C27.3858 17.5885 28.3661 16.6081 29.5736 16.6081H29.6549C30.8624 16.6081 31.8428 17.5885 31.8428 18.796ZM27.3858 27.9155H31.8428V23.5394H27.3858V27.9155ZM27.3858 34.8467H31.8428V30.471H27.3858V34.8467ZM27.3858 41.7783H31.8428V37.4026H27.3858V41.7783ZM40.3047 18.796C40.3047 20.0035 39.3244 20.9838 38.1168 20.9838H38.0356C36.8281 20.9838 35.8477 20.0035 35.8477 18.796C35.8477 17.5885 36.8281 16.6081 38.0356 16.6081H38.1168C39.3244 16.6081 40.3047 17.5885 40.3047 18.796ZM35.8477 27.9155H40.3047V23.5394H35.8477V27.9155Z" fill="#545454"/>
<path fill-rule="evenodd" clip-rule="evenodd" d="M47.5535 39.2199C48.9203 39.2199 50.0292 40.3665 50.0292 41.779C50.0292 43.1913 48.9203 44.3379 47.5535 44.3379C46.187 44.3379 45.0781 43.1913 45.0781 41.779C45.0781 40.3665 46.187 39.2199 47.5535 39.2199Z" fill="#0ABDDB"/>
<path d="M47.553 42.873C46.9484 42.873 46.459 42.3838 46.459 41.7789V34.5104C46.459 33.9058 46.9484 33.4164 47.553 33.4164C48.1575 33.4164 48.647 33.9058 48.647 34.5104V41.7789C48.647 42.3838 48.1575 42.873 47.553 42.873Z" fill="#0ABDDB"/>
<path d="M52.2581 46.1592C52.0402 46.1592 51.8222 46.0951 51.6321 45.9628L46.9274 42.6766C46.4318 42.3305 46.3099 41.6489 46.6561 41.1531C47.0045 40.6533 47.6902 40.5401 48.1795 40.8818L52.8842 44.1679C53.3802 44.514 53.5017 45.1956 53.1555 45.6914C52.942 45.9968 52.6021 46.1592 52.2581 46.1592Z" fill="#0ABDDB"/>
</svg>
