<svg width="80" height="81" viewBox="0 0 80 81" fill="none" xmlns="http://www.w3.org/2000/svg">
<path d="M80 80.5H0V0.5H80V80.5Z" fill="white"/>
<path d="M58.7208 69.1255C58.7208 69.1731 58.682 69.2115 58.6345 69.2115H21.3674C21.3201 69.2115 21.2816 69.1731 21.2816 69.1255V20.9579C21.2816 20.9109 21.3201 20.8725 21.3674 20.8725H28.6604V22.8063C28.6604 23.9727 29.6095 24.9221 30.776 24.9221H49.2262C50.3926 24.9221 51.342 23.9727 51.342 22.8063V20.8725H58.6345C58.682 20.8725 58.7208 20.9109 58.7208 20.9579V69.1255ZM30.2604 19.3502C30.2604 18.1347 31.2491 17.146 32.4644 17.146H35.8056L35.7546 16.298C35.7494 16.2121 35.7468 16.1267 35.7468 16.0435C35.7468 13.6977 37.6553 11.789 40.001 11.789C42.347 11.789 44.2557 13.6977 44.2557 16.0435C44.2557 16.1228 44.2531 16.2061 44.2475 16.298L44.1966 17.146H47.5379C48.753 17.146 49.7417 18.1347 49.7417 19.3502V20.0723V22.8063C49.7417 23.0905 49.5105 23.3218 49.2262 23.3218H30.776C30.7405 23.3218 30.7058 23.3183 30.6722 23.3114C30.4375 23.2631 30.2604 23.0552 30.2604 22.8063V20.0723V19.3502ZM58.6345 19.2722H51.3412C51.2993 17.2103 49.6093 15.5457 47.5379 15.5457H45.8344C45.5812 12.5499 43.0618 10.1891 40.001 10.1891C36.9408 10.1891 34.4212 12.5499 34.1677 15.5457H32.4644C30.393 15.5457 28.7031 17.2103 28.6614 19.2722H21.3674C20.4379 19.2722 19.6816 20.0283 19.6816 20.9579V69.1255C19.6816 70.0551 20.4379 70.8115 21.3674 70.8115H58.6345C59.5641 70.8115 60.3207 70.0551 60.3207 69.1255V20.9579C60.3207 20.0283 59.5641 19.2722 58.6345 19.2722Z" fill="#100F0D"/>
<path d="M40.0012 14.6405C40.7748 14.6405 41.4043 15.2699 41.4043 16.0435C41.4043 16.8174 40.7748 17.4469 40.0012 17.4469C39.2275 17.4469 38.5981 16.8174 38.5981 16.0435C38.5981 15.2699 39.2275 14.6405 40.0012 14.6405ZM40.0012 19.0469C41.6571 19.0469 43.0043 17.6997 43.0043 16.0435C43.0043 14.3876 41.6571 13.0404 40.0012 13.0404C38.3453 13.0404 36.998 14.3876 36.998 16.0435C36.998 17.6997 38.3453 19.0469 40.0012 19.0469Z" fill="#100F0D"/>
<path d="M30.5923 37.0074H25.8422V32.2574H30.5923V37.0074ZM31.3923 30.6574H25.0422C24.6003 30.6574 24.2422 31.0158 24.2422 31.4574V37.8074C24.2422 38.2494 24.6003 38.6074 25.0422 38.6074H31.3923C31.8341 38.6074 32.1923 38.2494 32.1923 37.8074V31.4574C32.1923 31.0158 31.8341 30.6574 31.3923 30.6574Z" fill="#100F0D"/>
<path d="M53.7851 33.8326H36.0715C35.6296 33.8326 35.2715 34.1906 35.2715 34.6326C35.2715 35.0746 35.6296 35.4326 36.0715 35.4326H53.7851C54.2267 35.4326 54.5851 35.0746 54.5851 34.6326C54.5851 34.1906 54.2267 33.8326 53.7851 33.8326Z" fill="#100F0D"/>
<path d="M30.5923 49.6519H25.8422V44.9015H30.5923V49.6519ZM31.3923 43.3015H25.0422C24.6003 43.3015 24.2422 43.6599 24.2422 44.1015V50.452C24.2422 50.8936 24.6003 51.252 25.0422 51.252H31.3923C31.8341 51.252 32.1923 50.8936 32.1923 50.452V44.1015C32.1923 43.6599 31.8341 43.3015 31.3923 43.3015Z" fill="#100F0D"/>
<path d="M53.7851 46.4762H36.0715C35.6296 46.4762 35.2715 46.8342 35.2715 47.2762C35.2715 47.7182 35.6296 48.0762 36.0715 48.0762H53.7851C54.2267 48.0762 54.5851 47.7182 54.5851 47.2762C54.5851 46.8342 54.2267 46.4762 53.7851 46.4762Z" fill="#100F0D"/>
<path d="M30.5923 62.2965H25.8422V57.5465H30.5923V62.2965ZM31.3923 55.9465H25.0422C24.6003 55.9465 24.2422 56.3045 24.2422 56.7465V63.0965C24.2422 63.5381 24.6003 63.8965 25.0422 63.8965H31.3923C31.8341 63.8965 32.1923 63.5381 32.1923 63.0965V56.7465C32.1923 56.3045 31.8341 55.9465 31.3923 55.9465Z" fill="#100F0D"/>
<path d="M53.7851 59.1207H36.0715C35.6296 59.1207 35.2715 59.4787 35.2715 59.9207C35.2715 60.3627 35.6296 60.7207 36.0715 60.7207H53.7851C54.2267 60.7207 54.5851 60.3627 54.5851 59.9207C54.5851 59.4787 54.2267 59.1207 53.7851 59.1207Z" fill="#100F0D"/>
<rect width="27.4854" height="28.442" transform="translate(46 51.5)" fill="white"/>
<path d="M60.2212 79.9424C52.3796 79.9424 46 73.5626 46 65.7212C46 57.88 52.3796 51.5004 60.2212 51.5004C65.6267 51.5004 70.4984 54.5062 72.9316 59.3435C73.0645 59.6043 73.1901 59.8757 73.3057 60.1491C73.5429 60.7067 73.282 61.3476 72.7265 61.5826C72.1754 61.8219 71.5279 61.5614 71.2932 61.0036C71.1948 60.7728 71.09 60.5487 70.9788 60.3285C68.9174 56.2328 64.7954 53.6879 60.2212 53.6879C53.5871 53.6879 48.188 59.0871 48.188 65.7212C48.188 72.3553 53.5871 77.7544 60.2212 77.7544C65.1463 77.7544 69.5238 74.8037 71.3782 70.2358C71.6026 69.6783 72.2352 69.4046 72.8036 69.6354C73.3635 69.8618 73.6324 70.4987 73.4041 71.0606C71.2161 76.4554 66.0414 79.9424 60.2212 79.9424Z" fill="#0ABDDB"/>
<path fill-rule="evenodd" clip-rule="evenodd" d="M60.2214 63.1613C61.5883 63.1613 62.6972 64.3079 62.6972 65.7205C62.6972 67.1327 61.5883 68.2793 60.2214 68.2793C58.855 68.2793 57.7461 67.1327 57.7461 65.7205C57.7461 64.3079 58.855 63.1613 60.2214 63.1613Z" fill="#0ABDDB"/>
<path d="M60.2209 66.8145C59.6164 66.8145 59.127 66.3252 59.127 65.7203V58.4518C59.127 57.8472 59.6164 57.3578 60.2209 57.3578C60.8255 57.3578 61.3149 57.8472 61.3149 58.4518V65.7203C61.3149 66.3252 60.8255 66.8145 60.2209 66.8145Z" fill="#0ABDDB"/>
<path d="M64.9261 70.1006C64.7082 70.1006 64.4902 70.0365 64.3001 69.9042L59.5953 66.618C59.0998 66.2719 58.9778 65.5903 59.324 65.0945C59.6725 64.5947 60.3582 64.4815 60.8474 64.8232L65.5522 68.1093C66.0481 68.4554 66.1697 69.137 65.8235 69.6328C65.61 69.9382 65.2701 70.1006 64.9261 70.1006Z" fill="#0ABDDB"/>
</svg>
