<svg width="56" height="57" viewBox="0 0 56 57" fill="none" xmlns="http://www.w3.org/2000/svg">
<path d="M9.33464 33.1673C8.0513 33.1673 6.95308 32.7108 6.03997 31.7977C5.12686 30.8845 4.66952 29.7855 4.66797 28.5007V7.50065C4.66797 6.21732 5.1253 5.1191 6.03997 4.20598C6.95464 3.29287 8.05286 2.83554 9.33464 2.83398H46.668C47.9513 2.83398 49.0503 3.29132 49.965 4.20598C50.8796 5.12065 51.3362 6.21887 51.3346 7.50065V28.5007C51.3346 29.784 50.8781 30.883 49.965 31.7977C49.0519 32.7123 47.9529 33.1689 46.668 33.1673H39.143C39.3763 32.3895 39.5319 31.6118 39.6096 30.834C39.6874 30.0562 39.6874 29.2784 39.6096 28.5007H46.668V7.50065H9.33464V28.5007H16.393C16.3152 29.2784 16.3152 30.0562 16.393 30.834C16.4707 31.6118 16.6263 32.3895 16.8596 33.1673H9.33464ZM11.668 54.1673V49.2673C11.668 47.9062 12.0475 46.6423 12.8066 45.4757C13.5657 44.309 14.5667 43.434 15.8096 42.8507C17.7152 41.9562 19.6985 41.2858 21.7596 40.8393C23.8207 40.3929 25.9013 40.1689 28.0013 40.1673C30.1013 40.1658 32.1819 40.3898 34.243 40.8393C36.3041 41.2889 38.2874 41.9593 40.193 42.8507C41.4374 43.434 42.4392 44.309 43.1983 45.4757C43.9574 46.6423 44.3362 47.9062 44.3346 49.2673V54.1673H11.668ZM16.3346 49.5007H39.668V49.2673C39.668 48.8007 39.5319 48.3729 39.2596 47.984C38.9874 47.5951 38.6374 47.3034 38.2096 47.109C36.5763 46.3701 34.9041 45.8062 33.193 45.4173C31.4819 45.0284 29.7513 44.834 28.0013 44.834C26.2513 44.834 24.5207 45.0284 22.8096 45.4173C21.0985 45.8062 19.4263 46.3701 17.793 47.109C17.3652 47.3034 17.0152 47.5951 16.743 47.984C16.4707 48.3729 16.3346 48.8007 16.3346 49.2673V49.5007ZM28.0013 37.834C25.7457 37.834 23.8207 37.0368 22.2263 35.4423C20.6319 33.8479 19.8346 31.9229 19.8346 29.6673C19.8346 27.4118 20.6319 25.4868 22.2263 23.8923C23.8207 22.2979 25.7457 21.5007 28.0013 21.5007C30.2569 21.5007 32.1819 22.2979 33.7763 23.8923C35.3708 25.4868 36.168 27.4118 36.168 29.6673C36.168 31.9229 35.3708 33.8479 33.7763 35.4423C32.1819 37.0368 30.2569 37.834 28.0013 37.834ZM28.0013 33.1673C28.9735 33.1673 29.8003 32.8274 30.4816 32.1477C31.163 31.4679 31.5029 30.6411 31.5013 29.6673C31.4997 28.6935 31.1599 27.8675 30.4816 27.1893C29.8034 26.5111 28.9766 26.1704 28.0013 26.1673C27.026 26.1642 26.2 26.5049 25.5233 27.1893C24.8466 27.8738 24.506 28.6998 24.5013 29.6673C24.4966 30.6349 24.8373 31.4617 25.5233 32.1477C26.2093 32.8337 27.0353 33.1735 28.0013 33.1673Z" fill="#545454"/>
</svg>
