<svg width="40" height="40" viewBox="0 0 40 40" fill="none" xmlns="http://www.w3.org/2000/svg">
<path d="M14.5134 17.6399L20.0001 8.61719L25.4881 17.6425L14.5134 17.6399ZM27.3214 32.3065C25.9365 32.3065 24.7632 31.8261 23.8014 30.8652C22.8396 29.9043 22.3587 28.731 22.3587 27.3452C22.3587 25.9594 22.8396 24.7821 23.8014 23.8132C24.7632 22.8443 25.9365 22.3599 27.3214 22.3599C28.7063 22.3599 29.8836 22.8443 30.8534 23.8132C31.8232 24.7821 32.3076 25.9594 32.3067 27.3452C32.3058 28.731 31.8214 29.9043 30.8534 30.8652C29.8854 31.8261 28.7081 32.307 27.3214 32.3079M9.02539 31.6412V23.0252H17.6414V31.6412H9.02539Z" fill="#545454"/>
</svg>
