<svg width="32" height="32" viewBox="0 0 32 32" fill="none" xmlns="http://www.w3.org/2000/svg">
<g clip-path="url(#clip0_2905_872)">
<path fill-rule="evenodd" clip-rule="evenodd" d="M4 6V26C4 26.5304 4.21071 27.0391 4.58579 27.4142C4.96086 27.7893 5.46957 28 6 28H20.6667C21.1971 28 21.7058 27.7893 22.0809 27.4142C22.456 27.0391 22.6667 26.5304 22.6667 26V6C22.6667 5.46957 22.456 4.96086 22.0809 4.58579C21.7058 4.21071 21.1971 4 20.6667 4H6C5.46957 4 4.96086 4.21071 4.58579 4.58579C4.21071 4.96086 4 5.46957 4 6ZM13.3333 10C13.3333 9.82319 13.4036 9.65362 13.5286 9.5286C13.6536 9.40357 13.8232 9.33333 14 9.33333H19.3333C19.5101 9.33333 19.6797 9.40357 19.8047 9.5286C19.9298 9.65362 20 9.82319 20 10C20 10.1768 19.9298 10.3464 19.8047 10.4714C19.6797 10.5964 19.5101 10.6667 19.3333 10.6667H14C13.8232 10.6667 13.6536 10.5964 13.5286 10.4714C13.4036 10.3464 13.3333 10.1768 13.3333 10ZM14 12C13.8232 12 13.6536 12.0702 13.5286 12.1953C13.4036 12.3203 13.3333 12.4899 13.3333 12.6667C13.3333 12.8435 13.4036 13.013 13.5286 13.1381C13.6536 13.2631 13.8232 13.3333 14 13.3333H19.3333C19.5101 13.3333 19.6797 13.2631 19.8047 13.1381C19.9298 13.013 20 12.8435 20 12.6667C20 12.4899 19.9298 12.3203 19.8047 12.1953C19.6797 12.0702 19.5101 12 19.3333 12H14ZM13.3333 18.6667C13.3333 18.4899 13.4036 18.3203 13.5286 18.1953C13.6536 18.0702 13.8232 18 14 18H19.3333C19.5101 18 19.6797 18.0702 19.8047 18.1953C19.9298 18.3203 20 18.4899 20 18.6667C20 18.8435 19.9298 19.013 19.8047 19.1381C19.6797 19.2631 19.5101 19.3333 19.3333 19.3333H14C13.8232 19.3333 13.6536 19.2631 13.5286 19.1381C13.4036 19.013 13.3333 18.8435 13.3333 18.6667ZM14 20.6667C13.8232 20.6667 13.6536 20.7369 13.5286 20.8619C13.4036 20.987 13.3333 21.1565 13.3333 21.3333C13.3333 21.5101 13.4036 21.6797 13.5286 21.8047C13.6536 21.9298 13.8232 22 14 22H19.3333C19.5101 22 19.6797 21.9298 19.8047 21.8047C19.9298 21.6797 20 21.5101 20 21.3333C20 21.1565 19.9298 20.987 19.8047 20.8619C19.6797 20.7369 19.5101 20.6667 19.3333 20.6667H14ZM8 18.6667V20.6667H10V18.6667H8ZM7.33333 17.3333H10.6667C10.8435 17.3333 11.013 17.4036 11.1381 17.5286C11.2631 17.6536 11.3333 17.8232 11.3333 18V21.3333C11.3333 21.5101 11.2631 21.6797 11.1381 21.8047C11.013 21.9298 10.8435 22 10.6667 22H7.33333C7.15652 22 6.98695 21.9298 6.86193 21.8047C6.7369 21.6797 6.66667 21.5101 6.66667 21.3333V18C6.66667 17.8232 6.7369 17.6536 6.86193 17.5286C6.98695 17.4036 7.15652 17.3333 7.33333 17.3333ZM11.8047 10.4713C11.9261 10.3456 11.9933 10.1772 11.9918 10.0024C11.9903 9.8276 11.9202 9.66039 11.7965 9.53679C11.6729 9.41318 11.5057 9.34307 11.3309 9.34155C11.1561 9.34003 10.9877 9.40723 10.862 9.52867L8.66667 11.724L7.80467 10.862C7.67893 10.7406 7.51053 10.6734 7.33573 10.6749C7.16093 10.6764 6.99373 10.7465 6.87012 10.8701C6.74652 10.9937 6.6764 11.1609 6.67488 11.3357C6.67337 11.5105 6.74056 11.6789 6.862 11.8047L8.66667 13.6093L11.8047 10.4713Z" fill="#545454"/>
<rect x="14.667" y="16" width="16.921" height="17.0353" rx="8.46051" fill="white"/>
<path d="M23.1261 21.6797C23.874 21.6797 24.5913 21.9788 25.1202 22.5113C25.6491 23.0438 25.9462 23.7659 25.9462 24.5189C25.9462 25.2719 25.6491 25.9941 25.1202 26.5265C24.5913 27.059 23.874 27.3581 23.1261 27.3581C22.3781 27.3581 21.6608 27.059 21.1319 26.5265C20.603 25.9941 20.3059 25.2719 20.3059 24.5189C20.3059 23.7659 20.603 23.0438 21.1319 22.5113C21.6608 21.9788 22.3781 21.6797 23.1261 21.6797ZM23.1261 23.0993C22.7521 23.0993 22.3934 23.2489 22.129 23.5151C21.8645 23.7813 21.716 24.1424 21.716 24.5189C21.716 24.8954 21.8645 25.2565 22.129 25.5227C22.3934 25.789 22.7521 25.9385 23.1261 25.9385C23.5 25.9385 23.8587 25.789 24.1231 25.5227C24.3876 25.2565 24.5361 24.8954 24.5361 24.5189C24.5361 24.1424 24.3876 23.7813 24.1231 23.5151C23.8587 23.2489 23.5 23.0993 23.1261 23.0993ZM21.716 31.6169C21.5397 31.6169 21.3917 31.4892 21.3635 31.3188L21.1026 29.4379C20.6584 29.2604 20.2777 29.0191 19.9111 28.7352L18.1555 29.4521C18.0004 29.5088 17.81 29.4521 17.7254 29.2959L16.3153 26.84C16.2722 26.7668 16.257 26.6804 16.2726 26.5968C16.2881 26.5132 16.3334 26.4381 16.4 26.3857L17.8876 25.2074L17.8382 24.5189L17.8876 23.8091L16.4 22.6521C16.3334 22.5997 16.2881 22.5247 16.2726 22.4411C16.257 22.3575 16.2722 22.271 16.3153 22.1979L17.7254 19.742C17.81 19.5858 18.0004 19.5219 18.1555 19.5858L19.9111 20.2956C20.2777 20.0188 20.6584 19.7774 21.1026 19.6L21.3635 17.719C21.3917 17.5487 21.5397 17.4209 21.716 17.4209H24.5361C24.7124 17.4209 24.8605 17.5487 24.8887 17.719L25.1495 19.6C25.5937 19.7774 25.9744 20.0188 26.3411 20.2956L28.0966 19.5858C28.2517 19.5219 28.4421 19.5858 28.5267 19.742L29.9368 22.1979C30.0284 22.354 29.9861 22.5457 29.8522 22.6521L28.3645 23.8091L28.4139 24.5189L28.3645 25.2287L29.8522 26.3857C29.9861 26.4922 30.0284 26.6838 29.9368 26.84L28.5267 29.2959C28.4421 29.4521 28.2517 29.5159 28.0966 29.4521L26.3411 28.7422C25.9744 29.0191 25.5937 29.2604 25.1495 29.4379L24.8887 31.3188C24.8605 31.4892 24.7124 31.6169 24.5361 31.6169H21.716ZM22.5973 18.8405L22.3364 20.6931C21.4904 20.8705 20.743 21.3248 20.2001 21.9565L18.501 21.2183L17.9722 22.1411L19.4598 23.2413C19.1778 24.0694 19.1778 24.9685 19.4598 25.7966L17.9651 26.9039L18.4939 27.8266L20.2072 27.0884C20.7501 27.713 21.4904 28.1673 22.3294 28.3377L22.5902 30.1973H23.6619L23.9228 28.3448C24.7618 28.1673 25.5021 27.713 26.0449 27.0884L27.7582 27.8266L28.287 26.9039L26.7923 25.8037C27.0743 24.9732 27.0743 24.0717 26.7923 23.2413L28.2799 22.1411L27.7511 21.2183L26.052 21.9565C25.498 21.3108 24.7465 20.8689 23.9157 20.7002L23.6548 18.8405H22.5973Z" fill="#545454"/>
</g>
<defs>
<clipPath id="clip0_2905_872">
<rect width="32" height="32" fill="white"/>
</clipPath>
</defs>
</svg>
