<svg width="31" height="29" viewBox="0 0 31 29" fill="none" xmlns="http://www.w3.org/2000/svg">
<path fill-rule="evenodd" clip-rule="evenodd" d="M15.9693 24.6396H2.18607C1.16281 24.6396 0.332031 23.7766 0.332031 22.7136V4.49067C0.332031 3.42738 1.16281 2.56413 2.18607 2.56413H4.87054V1.35018C4.87054 0.83461 5.27347 0.416027 5.76971 0.416027H6.2471C6.74346 0.416027 7.14639 0.83461 7.14639 1.35018V2.56413H18.827V1.35018C18.827 0.83461 19.2299 0.416027 19.7261 0.416027H20.2034C20.6999 0.416027 21.1026 0.83461 21.1026 1.35018V2.56413H23.7872C24.8104 2.56413 25.6413 3.42738 25.6413 4.49067V13.918C25.0829 13.6949 24.4928 13.5384 23.8805 13.4571L23.7872 6.90673H2.18607L2.09281 22.8283H15.409C15.5262 23.4622 15.7161 24.0691 15.9693 24.6396Z" fill="#545454"/>
<path fill-rule="evenodd" clip-rule="evenodd" d="M32.3349 17.5469L30.5832 21.2432L27.5254 18.5268L32.3349 17.5469Z" fill="#545454"/>
<path d="M24.0361 28.333C20.1268 28.333 16.9463 25.1525 16.9463 21.2432C16.9463 17.3341 20.1268 14.1537 24.0361 14.1537C26.7309 14.1537 29.1596 15.6522 30.3726 18.0637C30.4389 18.1937 30.5015 18.329 30.5591 18.4654C30.6774 18.7433 30.5473 19.0629 30.2704 19.18C29.9956 19.2993 29.6729 19.1694 29.5558 18.8914C29.5068 18.7763 29.4546 18.6646 29.3991 18.5548C28.3714 16.513 26.3165 15.2442 24.0361 15.2442C20.7287 15.2442 18.0371 17.9359 18.0371 21.2432C18.0371 24.5506 20.7287 27.2422 24.0361 27.2422C26.4914 27.2422 28.6737 25.7712 29.5982 23.494C29.7101 23.216 30.0254 23.0796 30.3088 23.1946C30.588 23.3075 30.722 23.625 30.6082 23.9051C29.5174 26.5946 26.9376 28.333 24.0361 28.333Z" fill="#545454"/>
<path fill-rule="evenodd" clip-rule="evenodd" d="M18.2016 15.9929V15.6061H18.6091C18.4679 15.7292 18.3319 15.8583 18.2016 15.9929ZM7.76788 9.78566C7.76788 10.3877 7.27913 10.8764 6.67712 10.8764H6.63666C6.03465 10.8764 5.5459 10.3877 5.5459 9.78566C5.5459 9.18367 6.03465 8.69494 6.63666 8.69494H6.67712C7.27913 8.69494 7.76788 9.18367 7.76788 9.78566ZM5.5459 14.332H7.76788V12.1504H5.5459V14.332ZM5.5459 17.7875H7.76788V15.6061H5.5459V17.7875ZM5.5459 21.2432H7.76788V19.0617H5.5459V21.2432ZM11.9864 9.78566C11.9864 10.3877 11.4977 10.8764 10.8957 10.8764H10.8552C10.2532 10.8764 9.76437 10.3877 9.76437 9.78566C9.76437 9.18367 10.2532 8.69494 10.8552 8.69494H10.8957C11.4977 8.69494 11.9864 9.18367 11.9864 9.78566ZM9.76437 14.332H11.9864V12.1504H9.76437V14.332ZM9.76437 17.7875H11.9864V15.6061H9.76437V17.7875ZM9.76437 21.2432H11.9864V19.0617H9.76437V21.2432ZM16.205 9.78566C16.205 10.3877 15.7163 10.8764 15.1143 10.8764H15.0738C14.4718 10.8764 13.983 10.3877 13.983 9.78566C13.983 9.18367 14.4718 8.69494 15.0738 8.69494H15.1143C15.7163 8.69494 16.205 9.18367 16.205 9.78566ZM13.983 14.332H16.205V12.1504H13.983V14.332ZM13.983 17.7875H16.205V15.6061H13.983V17.7875ZM13.983 21.2432H16.205V19.0617H13.983V21.2432ZM20.4236 9.78566C20.4236 10.3877 19.9348 10.8764 19.3329 10.8764H19.2923C18.6903 10.8764 18.2016 10.3877 18.2016 9.78566C18.2016 9.18367 18.6903 8.69494 19.2923 8.69494H19.3329C19.9348 8.69494 20.4236 9.18367 20.4236 9.78566ZM18.2016 14.332H20.4236V12.1504H18.2016V14.332Z" fill="#545454"/>
<path fill-rule="evenodd" clip-rule="evenodd" d="M24.0407 19.9661C24.7221 19.9661 25.2749 20.5377 25.2749 21.2419C25.2749 21.946 24.7221 22.5176 24.0407 22.5176C23.3595 22.5176 22.8066 21.946 22.8066 21.2419C22.8066 20.5377 23.3595 19.9661 24.0407 19.9661Z" fill="#545454"/>
<path d="M24.0415 21.7881C23.7401 21.7881 23.4961 21.5442 23.4961 21.2426V17.619C23.4961 17.3176 23.7401 17.0736 24.0415 17.0736C24.3429 17.0736 24.5869 17.3176 24.5869 17.619V21.2426C24.5869 21.5442 24.3429 21.7881 24.0415 21.7881Z" fill="#545454"/>
<path d="M26.3872 23.4268C26.2785 23.4268 26.1699 23.3948 26.0751 23.3288L23.7296 21.6906C23.4826 21.518 23.4217 21.1782 23.5943 20.9311C23.7681 20.6819 24.1099 20.6254 24.3538 20.7958L26.6993 22.434C26.9466 22.6066 27.0071 22.9464 26.8345 23.1935C26.7281 23.3458 26.5587 23.4268 26.3872 23.4268Z" fill="#545454"/>
</svg>
