<svg width="32" height="32" viewBox="0 0 32 32" fill="none" xmlns="http://www.w3.org/2000/svg">
<path d="M14.6602 6.24V11.4133C14.6602 11.8417 14.5757 12.2658 14.4113 12.6614C14.247 13.057 14.0062 13.4162 13.7027 13.7185C13.3991 14.0208 13.0389 14.2601 12.6427 14.4229C12.2464 14.5856 11.8219 14.6684 11.3936 14.6667H6.24691C5.81971 14.6693 5.39638 14.5856 5.00231 14.4206C4.60824 14.2556 4.25153 14.0128 3.95357 13.7067C3.65106 13.4067 3.4115 13.0493 3.24894 12.6555C3.08637 12.2617 3.00409 11.8394 3.00691 11.4133V6.25333C3.0069 5.3928 3.34783 4.56732 3.95507 3.95758C4.5623 3.34784 5.38638 3.00353 6.24691 3H11.4069C11.8337 3.00041 12.2561 3.08547 12.6497 3.25026C13.0434 3.41504 13.4005 3.65628 13.7002 3.96C14.0036 4.25731 14.2447 4.61203 14.4095 5.00348C14.5743 5.39493 14.6595 5.81527 14.6602 6.24ZM28.9936 6.25333V11.4133C28.9867 12.2717 28.6435 13.0932 28.0377 13.7015C27.432 14.3097 26.6119 14.6562 25.7536 14.6667H20.5802C19.7178 14.6614 18.891 14.3221 18.2736 13.72C17.9719 13.4167 17.7329 13.0568 17.5705 12.661C17.408 12.2651 17.3253 11.8412 17.3269 11.4133V6.25333C17.3258 5.82636 17.4102 5.40349 17.5751 5.00963C17.74 4.61576 17.982 4.25888 18.2869 3.96C18.5867 3.65628 18.9437 3.41504 19.3374 3.25026C19.7311 3.08547 20.1535 3.00041 20.5802 3H25.7402C26.6009 3.00697 27.4244 3.35197 28.033 3.96058C28.6416 4.5692 28.9866 5.39265 28.9936 6.25333ZM28.9936 20.5867V25.7467C28.9867 26.6051 28.6435 27.4265 28.0377 28.0348C27.432 28.643 26.6119 28.9896 25.7536 29H20.5802C19.7123 29.0088 18.8752 28.6787 18.2469 28.08C17.944 27.7775 17.7043 27.4178 17.5418 27.0218C17.3792 26.6258 17.2971 26.2014 17.3002 25.7733V20.6133C17.2992 20.1864 17.3835 19.7635 17.5484 19.3696C17.7133 18.9758 17.9553 18.6189 18.2602 18.32C18.56 18.0163 18.9171 17.775 19.3107 17.6103C19.7044 17.4455 20.1268 17.3604 20.5536 17.36H25.7136C26.5743 17.367 27.3977 17.712 28.0063 18.3206C28.6149 18.9292 28.9599 19.7527 28.9669 20.6133L28.9936 20.5867ZM14.6602 20.6V25.76C14.6497 26.6207 14.3014 27.4427 13.6903 28.0488C13.0792 28.6549 12.2543 28.9966 11.3936 29H6.24691C5.82093 29.0018 5.39882 28.9192 5.00493 28.757C4.61104 28.5948 4.25316 28.3562 3.95195 28.055C3.65073 27.7537 3.41214 27.3959 3.24994 27.002C3.08774 26.6081 3.00514 26.186 3.00691 25.76V20.6C3.01034 19.7393 3.35196 18.9144 3.95808 18.3033C4.5642 17.6922 5.38625 17.3438 6.24691 17.3333H11.4069C12.2712 17.3422 13.0982 17.6864 13.7136 18.2933C14.3217 18.9068 14.6621 19.7362 14.6602 20.6Z" fill="#545454"/>
</svg>
