<svg width="32" height="33" viewBox="0 0 32 33" fill="none" xmlns="http://www.w3.org/2000/svg">
<path d="M13.7278 13.954C17.5309 13.954 20.6139 10.9422 20.6139 7.22698C20.6139 3.51177 17.5309 0.5 13.7278 0.5C9.92478 0.5 6.8418 3.51177 6.8418 7.22698C6.8418 10.9422 9.92478 13.954 13.7278 13.954Z" fill="#545454"/>
<path d="M18.1455 26.252H25.6072V27.7098H18.1455V26.252Z" fill="#545454"/>
<path d="M11.747 28.3341V31.4581C11.747 31.7342 11.8593 31.9991 12.0592 32.1944C12.2591 32.3897 12.5302 32.4994 12.8129 32.4994H30.934C31.2168 32.4994 31.4879 32.3897 31.6878 32.1944C31.8877 31.9991 32 31.7342 32 31.4581V21.0448C32 20.7686 31.8877 20.5037 31.6878 20.3084C31.4879 20.1132 31.2168 20.0034 30.934 20.0034H23.4724V18.4727C23.4724 18.1965 23.3601 17.9317 23.1602 17.7364C22.9603 17.5411 22.6892 17.4314 22.4065 17.4314C22.1237 17.4314 21.8526 17.5411 21.6527 17.7364C21.4528 17.9317 21.3405 18.1965 21.3405 18.4727V20.0034H19.2086V16.2755C17.3972 15.9865 15.565 15.8402 13.7296 15.8381C9.68199 15.8213 5.67972 16.6708 2.00417 18.3269C1.39923 18.6058 0.888874 19.0484 0.533667 19.6021C0.178461 20.1558 -0.0066898 20.7975 0.000184707 21.4509V28.3341H11.747ZM29.8681 30.4167H13.8789V22.0861H21.3405V22.5235C21.3405 22.7996 21.4528 23.0645 21.6527 23.2598C21.8526 23.4551 22.1237 23.5648 22.4065 23.5648C22.6892 23.5648 22.9603 23.4551 23.1602 23.2598C23.3601 23.0645 23.4724 22.7996 23.4724 22.5235V22.0861H29.8681V30.4167Z" fill="#545454"/>
</svg>
