<svg width="32" height="32" viewBox="0 0 32 32" fill="none" xmlns="http://www.w3.org/2000/svg">
<mask id="mask0_1766_708" style="mask-type:alpha" maskUnits="userSpaceOnUse" x="0" y="0" width="32" height="32">
<circle cx="16" cy="16" r="16" fill="#D9D9D9"/>
</mask>
<g mask="url(#mask0_1766_708)">
<path d="M23 16L15 16V14L23 14V11L28 15L23 19V16ZM24 9H21.292C20.1373 7.98166 18.7133 7.31814 17.1909 7.08906C15.6684 6.85997 14.1122 7.07505 12.709 7.7085C11.3058 8.34194 10.1151 9.36683 9.27993 10.6602C8.44475 11.9535 8.0005 13.4604 8.0005 15C8.0005 16.5396 8.44475 18.0465 9.27993 19.3398C10.1151 20.6332 11.3058 21.6581 12.709 22.2915C14.1122 22.9249 15.6684 23.14 17.1909 22.9109C18.7133 22.6819 20.1373 22.0183 21.292 21H24C23.0693 22.2428 21.8617 23.2515 20.4729 23.9459C19.0842 24.6402 17.5527 25.0012 16 25C10.477 25 6 20.523 6 15C6 9.477 10.477 5 16 5C17.5527 4.99883 19.0842 5.35977 20.4729 6.05414C21.8617 6.74851 23.0693 7.75717 24 9Z" fill="black"/>
</g>
</svg>
