<svg width="32" height="32" viewBox="0 0 32 32" fill="none" xmlns="http://www.w3.org/2000/svg">
<path fill-rule="evenodd" clip-rule="evenodd" d="M26 8.66667C25.4696 8.66667 24.9609 8.87738 24.5858 9.25245C24.2107 9.62753 24 10.1362 24 10.6667V12H28V10.6667C28 10.1362 27.7893 9.62753 27.4142 9.25245C27.0391 8.87738 26.5304 8.66667 26 8.66667ZM28 13.3333H24V24.3333L26 27.3333L28 24.3333V13.3333ZM4 6V26C4 26.5304 4.21071 27.0391 4.58579 27.4142C4.96086 27.7893 5.46957 28 6 28H20.6667C21.1971 28 21.7058 27.7893 22.0809 27.4142C22.456 27.0391 22.6667 26.5304 22.6667 26V6C22.6667 5.46957 22.456 4.96086 22.0809 4.58579C21.7058 4.21071 21.1971 4 20.6667 4H6C5.46957 4 4.96086 4.21071 4.58579 4.58579C4.21071 4.96086 4 5.46957 4 6ZM13.3333 10C13.3333 9.82319 13.4036 9.65362 13.5286 9.5286C13.6536 9.40357 13.8232 9.33333 14 9.33333H19.3333C19.5101 9.33333 19.6797 9.40357 19.8047 9.5286C19.9298 9.65362 20 9.82319 20 10C20 10.1768 19.9298 10.3464 19.8047 10.4714C19.6797 10.5964 19.5101 10.6667 19.3333 10.6667H14C13.8232 10.6667 13.6536 10.5964 13.5286 10.4714C13.4036 10.3464 13.3333 10.1768 13.3333 10ZM14 12C13.8232 12 13.6536 12.0702 13.5286 12.1953C13.4036 12.3203 13.3333 12.4899 13.3333 12.6667C13.3333 12.8435 13.4036 13.013 13.5286 13.1381C13.6536 13.2631 13.8232 13.3333 14 13.3333H19.3333C19.5101 13.3333 19.6797 13.2631 19.8047 13.1381C19.9298 13.013 20 12.8435 20 12.6667C20 12.4899 19.9298 12.3203 19.8047 12.1953C19.6797 12.0702 19.5101 12 19.3333 12H14ZM13.3333 18.6667C13.3333 18.4899 13.4036 18.3203 13.5286 18.1953C13.6536 18.0702 13.8232 18 14 18H19.3333C19.5101 18 19.6797 18.0702 19.8047 18.1953C19.9298 18.3203 20 18.4899 20 18.6667C20 18.8435 19.9298 19.013 19.8047 19.1381C19.6797 19.2631 19.5101 19.3333 19.3333 19.3333H14C13.8232 19.3333 13.6536 19.2631 13.5286 19.1381C13.4036 19.013 13.3333 18.8435 13.3333 18.6667ZM14 20.6667C13.8232 20.6667 13.6536 20.7369 13.5286 20.8619C13.4036 20.987 13.3333 21.1565 13.3333 21.3333C13.3333 21.5101 13.4036 21.6797 13.5286 21.8047C13.6536 21.9298 13.8232 22 14 22H19.3333C19.5101 22 19.6797 21.9298 19.8047 21.8047C19.9298 21.6797 20 21.5101 20 21.3333C20 21.1565 19.9298 20.987 19.8047 20.8619C19.6797 20.7369 19.5101 20.6667 19.3333 20.6667H14ZM8 18.6667V20.6667H10V18.6667H8ZM7.33333 17.3333H10.6667C10.8435 17.3333 11.013 17.4036 11.1381 17.5286C11.2631 17.6536 11.3333 17.8232 11.3333 18V21.3333C11.3333 21.5101 11.2631 21.6797 11.1381 21.8047C11.013 21.9298 10.8435 22 10.6667 22H7.33333C7.15652 22 6.98695 21.9298 6.86193 21.8047C6.7369 21.6797 6.66667 21.5101 6.66667 21.3333V18C6.66667 17.8232 6.7369 17.6536 6.86193 17.5286C6.98695 17.4036 7.15652 17.3333 7.33333 17.3333ZM11.8047 10.4713C11.9261 10.3456 11.9933 10.1772 11.9918 10.0024C11.9903 9.8276 11.9202 9.66039 11.7965 9.53679C11.6729 9.41318 11.5057 9.34307 11.3309 9.34155C11.1561 9.34003 10.9877 9.40723 10.862 9.52867L8.66667 11.724L7.80467 10.862C7.67893 10.7406 7.51053 10.6734 7.33573 10.6749C7.16093 10.6764 6.99373 10.7465 6.87012 10.8701C6.74652 10.9937 6.6764 11.1609 6.67488 11.3357C6.67337 11.5105 6.74056 11.6789 6.862 11.8047L8.66667 13.6093L11.8047 10.4713Z" fill="#545454"/>
</svg>
