<svg width="40" height="40" viewBox="0 0 40 40" fill="none" xmlns="http://www.w3.org/2000/svg">
<path d="M12.0007 6.66602C10.5207 6.66602 9.33398 7.85268 9.33398 9.33268V30.666C9.33398 31.3733 9.61494 32.0515 10.115 32.5516C10.6151 33.0517 11.2934 33.3327 12.0007 33.3327H28.0007C28.7079 33.3327 29.3862 33.0517 29.8863 32.5516C30.3864 32.0515 30.6673 31.3733 30.6673 30.666V14.666L22.6673 6.66602H12.0007ZM21.334 8.66602L28.6673 15.9993H21.334V8.66602ZM20.0007 18.666C21.0615 18.666 22.0789 19.0874 22.8291 19.8376C23.5792 20.5877 24.0007 21.6052 24.0007 22.666C24.0007 25.1727 21.0007 25.4127 21.0007 27.666H19.0007C19.0007 24.4127 22.0007 24.666 22.0007 22.666C22.0007 22.1356 21.7899 21.6269 21.4149 21.2518C21.0398 20.8767 20.5311 20.666 20.0007 20.666C19.4702 20.666 18.9615 20.8767 18.5864 21.2518C18.2114 21.6269 18.0007 22.1356 18.0007 22.666H16.0007C16.0007 21.6052 16.4221 20.5877 17.1722 19.8376C17.9224 19.0874 18.9398 18.666 20.0007 18.666ZM19.0007 28.666H21.0007V30.666H19.0007V28.666Z" fill="#545454"/>
</svg>
