<svg width="40" height="40" viewBox="0 0 40 40" fill="none" xmlns="http://www.w3.org/2000/svg">
<path d="M12.0007 6.66602C10.5207 6.66602 9.33398 7.85268 9.33398 9.33268V30.666C9.33398 31.3733 9.61494 32.0515 10.115 32.5516C10.6151 33.0517 11.2934 33.3327 12.0007 33.3327H28.0007C28.7079 33.3327 29.3862 33.0517 29.8863 32.5516C30.3864 32.0515 30.6673 31.3733 30.6673 30.666V14.666L22.6673 6.66602H12.0007ZM21.334 8.66602L28.6673 15.9993H21.334V8.66602Z" fill="#545454"/>
<path d="M22.2132 22.1429H23.0703V23H22.2132V22.1429ZM21.356 22.1429H22.2132V23H21.356V22.1429ZM21.356 21.2857H22.2132V22.1429H21.356V21.2857ZM22.2132 21.2857H23.0703V22.1429H22.2132V21.2857ZM21.356 20.4286H22.2132V21.2857H21.356V20.4286ZM20.4989 20.4286H21.356V21.2857H20.4989V20.4286ZM20.4989 21.2857H21.356V22.1429H20.4989V21.2857ZM19.6417 21.2857H20.4989V22.1429H19.6417V21.2857ZM18.7846 21.2857H19.6417V22.1429H18.7846V21.2857ZM18.7846 20.4286H19.6417V21.2857H18.7846V20.4286ZM17.9275 20.4286H18.7846V21.2857H17.9275V20.4286ZM19.6417 20.4286H20.4989V21.2857H19.6417V20.4286ZM17.9275 21.2857H18.7846V22.1429H17.9275V21.2857ZM17.0703 21.2857H17.9275V22.1429H17.0703V21.2857ZM17.0703 22.1429H17.9275V23H17.0703V22.1429ZM17.9275 22.1429H18.7846V23H17.9275V22.1429ZM17.9275 23H18.7846V23.8571H17.9275V23ZM17.9275 23.8571H18.7846V24.7143H17.9275V23.8571ZM17.0703 23.8571H17.9275V24.7143H17.0703V23.8571ZM17.0703 23H17.9275V23.8571H17.0703V23ZM17.9275 24.7143H18.7846V25.5714H17.9275V24.7143ZM18.7846 24.7143H19.6417V25.5714H18.7846V24.7143ZM18.7846 23.8571H19.6417V24.7143H18.7846V23.8571ZM19.6417 23.8571H20.4989V24.7143H19.6417V23.8571ZM20.4989 23.8571H21.356V24.7143H20.4989V23.8571ZM21.356 23.8571H22.2132V24.7143H21.356V23.8571ZM21.356 24.7143H22.2132V25.5714H21.356V24.7143ZM20.4989 24.7143H21.356V25.5714H20.4989V24.7143ZM19.6417 24.7143H20.4989V25.5714H19.6417V24.7143ZM22.2132 24.7143H23.0703V25.5714H22.2132V24.7143ZM22.2132 25.5714H23.0703V26.4286H22.2132V25.5714ZM21.356 25.5714H22.2132V26.4286H21.356V25.5714ZM20.4989 27.2857H21.356V28.1429H20.4989V27.2857ZM21.356 27.2857H22.2132V28.1429H21.356V27.2857ZM21.356 26.4286H22.2132V27.2857H21.356V26.4286ZM22.2132 26.4286H23.0703V27.2857H22.2132V26.4286ZM22.2132 27.2857H23.0703V28.1429H22.2132V27.2857ZM21.356 28.1429H22.2132V29H21.356V28.1429ZM20.4989 28.1429H21.356V29H20.4989V28.1429ZM19.6417 28.1429H20.4989V29H19.6417V28.1429ZM18.7846 28.1429H19.6417V29H18.7846V28.1429ZM17.9275 28.1429H18.7846V29H17.9275V28.1429ZM17.9275 27.2857H18.7846V28.1429H17.9275V27.2857ZM18.7846 27.2857H19.6417V28.1429H18.7846V27.2857ZM19.6417 27.2857H20.4989V28.1429H19.6417V27.2857ZM17.0703 27.2857H17.9275V28.1429H17.0703V27.2857ZM17.0703 26.4286H17.9275V27.2857H17.0703V26.4286ZM17.9275 26.4286H18.7846V27.2857H17.9275V26.4286Z" fill="white"/>
</svg>
