<svg width="32" height="32" viewBox="0 0 32 32" fill="none" xmlns="http://www.w3.org/2000/svg">
<path d="M21.3333 18.6673C20.2222 18.6673 19.2778 18.2784 18.5 17.5007C17.7222 16.7229 17.3333 15.7784 17.3333 14.6673C17.3333 13.5562 17.7222 12.6118 18.5 11.834C19.2778 11.0562 20.2222 10.6673 21.3333 10.6673C22.4445 10.6673 23.3889 11.0562 24.1667 11.834C24.9445 12.6118 25.3333 13.5562 25.3333 14.6673C25.3333 15.7784 24.9445 16.7229 24.1667 17.5007C23.3889 18.2784 22.4445 18.6673 21.3333 18.6673ZM14.6667 26.6673C14.2889 26.6673 13.9724 26.5393 13.7173 26.2833C13.4622 26.0273 13.3342 25.7109 13.3333 25.334V24.134C13.3333 23.6673 13.4444 23.2229 13.6667 22.8007C13.8889 22.3784 14.2 22.0451 14.6 21.8007C15.6 21.2007 16.6613 20.7509 17.784 20.4513C18.9067 20.1518 20.0898 20.0015 21.3333 20.0007C22.5769 19.9998 23.7605 20.15 24.884 20.4513C26.0076 20.7527 27.0684 21.2024 28.0667 21.8007C28.4667 22.0451 28.7778 22.3784 29 22.8007C29.2222 23.2229 29.3333 23.6673 29.3333 24.134V25.334C29.3333 25.7118 29.2053 26.0287 28.9493 26.2847C28.6933 26.5407 28.3769 26.6682 28 26.6673H14.6667ZM13.3333 18.6673H5.33334C4.95556 18.6673 4.63912 18.5393 4.384 18.2833C4.12889 18.0273 4.00089 17.7109 4 17.334C3.99912 16.9571 4.12712 16.6407 4.384 16.3847C4.64089 16.1287 4.95734 16.0007 5.33334 16.0007H13.3333C13.7111 16.0007 14.028 16.1287 14.284 16.3847C14.54 16.6407 14.6676 16.9571 14.6667 17.334C14.6658 17.7109 14.5378 18.0278 14.2827 18.2847C14.0276 18.5415 13.7111 18.6691 13.3333 18.6673ZM18.6667 8.00065H5.33334C4.95556 8.00065 4.63912 7.87265 4.384 7.61665C4.12889 7.36065 4.00089 7.04421 4 6.66732C3.99912 6.29043 4.12712 5.97398 4.384 5.71798C4.64089 5.46198 4.95734 5.33398 5.33334 5.33398H18.6667C19.0444 5.33398 19.3613 5.46198 19.6173 5.71798C19.8733 5.97398 20.0009 6.29043 20 6.66732C19.9991 7.04421 19.8711 7.3611 19.616 7.61798C19.3609 7.87487 19.0444 8.00243 18.6667 8.00065ZM14.8 13.334H5.33334C4.95556 13.334 4.63912 13.206 4.384 12.95C4.12889 12.694 4.00089 12.3775 4 12.0007C3.99912 11.6238 4.12712 11.3073 4.384 11.0513C4.64089 10.7953 4.95734 10.6673 5.33334 10.6673H16C15.6889 11.0451 15.4391 11.4562 15.2507 11.9007C15.0622 12.3451 14.912 12.8229 14.8 13.334Z" fill="#545454"/>
</svg>
