<svg width="170" height="200" viewBox="0 0 170 200" fill="none" xmlns="http://www.w3.org/2000/svg">
<path d="M162.17 153.8H80.9531V149.952H162.17C164.365 149.952 166.151 148.166 166.151 145.971V81.6623C166.151 79.4675 164.365 77.6832 162.17 77.6832H80.9531V73.8341H162.17C166.487 73.8341 170 77.3473 170 81.6623V145.971C170 150.288 166.487 153.8 162.17 153.8Z" fill="#4E4E4E"/>
<path d="M125.684 69.9043V33.5552C125.684 27.4612 120.724 22.5044 114.63 22.5044H35.4613C29.3664 22.5044 24.4082 27.4612 24.4082 33.5552V73.1055C25.6757 72.7356 26.959 72.4301 28.2565 72.189V33.5552C28.2565 29.5836 31.4886 26.3517 35.4613 26.3517H114.63C118.601 26.3517 121.834 29.5836 121.834 33.5552V69.9043H125.684Z" fill="#4E4E4E"/>
<path d="M24.4082 188.95C24.4082 195.042 29.3664 200 35.4613 200H114.63C120.724 200 125.683 195.042 125.683 188.95V157.731H121.833V188.95C121.833 192.921 118.601 196.152 114.63 196.152H35.4613C31.4885 196.152 28.2565 192.921 28.2565 188.95V150.316C26.9589 150.075 25.6756 149.769 24.4082 149.399V188.95Z" fill="#4E4E4E"/>
<path d="M35.5576 75.7049C15.9196 75.7049 0 91.6203 0 111.252C0 130.884 15.9196 146.8 35.5576 146.8C55.1951 146.8 71.1148 130.884 71.1148 111.252C71.1148 91.6203 55.1951 75.7049 35.5576 75.7049Z" fill="#EFBF2D"/>
<path d="M80.9512 87.9145H168.074V102.637H80.9512V87.9145Z" fill="#4E4E4E"/>
<path d="M116.662 133.062H80.9531V129.215H116.662C117.723 129.215 118.586 130.077 118.586 131.138C118.586 132.202 117.723 133.062 116.662 133.062Z" fill="#4E4E4E"/>
<path d="M116.662 143.322H80.9531V139.475H116.662C117.723 139.475 118.586 140.337 118.586 141.399C118.586 142.461 117.723 143.322 116.662 143.322Z" fill="#4E4E4E"/>
<path d="M90.9825 190.799H59.1122C58.0488 190.799 57.1875 189.937 57.1875 188.875C57.1875 187.812 58.0488 186.951 59.1122 186.951H90.9825C92.0459 186.951 92.9072 187.812 92.9072 188.875C92.9072 189.937 92.0459 190.799 90.9825 190.799Z" fill="#4E4E4E"/>
<path d="M82.6073 35.748H67.491C66.4275 35.748 65.5664 34.8873 65.5664 33.8244C65.5664 32.7615 66.4275 31.9008 67.491 31.9008H82.6073C83.6691 31.9008 84.5314 32.7615 84.5314 33.8244C84.5314 34.8873 83.6691 35.748 82.6073 35.748Z" fill="#4E4E4E"/>
<path d="M146.27 29.5996H131.154C130.091 29.5996 129.23 28.7389 129.23 27.6762C129.23 26.6136 130.091 25.7529 131.154 25.7529H146.27C147.333 25.7529 148.195 26.6136 148.195 27.6762C148.195 28.7389 147.333 29.5996 146.27 29.5996Z" fill="#4E4E4E"/>
<path d="M120.511 18.959C119.449 18.959 118.588 18.0983 118.588 17.036V1.92429C118.588 0.860418 119.449 -0.000272751 120.511 -0.000272751C121.576 -0.000272751 122.436 0.860418 122.436 1.92429V17.036C122.436 18.0983 121.576 18.959 120.511 18.959Z" fill="#4E4E4E"/>
<path d="M126.909 22.8711C126.416 22.8711 125.925 22.6836 125.548 22.307C124.796 21.5553 124.796 20.3372 125.548 19.587L136.237 8.90113C136.989 8.14948 138.207 8.14948 138.959 8.90113C139.711 9.65279 139.711 10.8694 138.959 11.621L128.27 22.307C127.895 22.6836 127.402 22.8711 126.909 22.8711Z" fill="#4E4E4E"/>
<path d="M90.1525 35.748H88.8421C87.7789 35.748 86.918 34.8873 86.918 33.8244C86.918 32.7615 87.7789 31.9008 88.8421 31.9008H90.1525C91.2156 31.9008 92.078 32.7615 92.078 33.8244C92.078 34.8873 91.2156 35.748 90.1525 35.748Z" fill="#4E4E4E"/>
<path d="M38.1711 88.9004L37.202 118.59H30.154L29.1556 88.9004H38.1711ZM28.9206 127.782C28.9206 126.529 29.3513 125.491 30.2128 124.669C31.0938 123.827 32.2488 123.406 33.678 123.406C35.1268 123.406 36.2819 123.827 37.1433 124.669C38.0047 125.491 38.4354 126.529 38.4354 127.782C38.4354 128.996 38.0047 130.023 37.1433 130.865C36.2819 131.707 35.1268 132.128 33.678 132.128C32.2488 132.128 31.0938 131.707 30.2128 130.865C29.3513 130.023 28.9206 128.996 28.9206 127.782Z" fill="white"/>
</svg>
