<svg width="170" height="200" viewBox="0 0 170 200" fill="none" xmlns="http://www.w3.org/2000/svg">
<path d="M162.169 153.8H80.9531V149.952H162.169C164.364 149.952 166.151 148.166 166.151 145.971V81.6623C166.151 79.4675 164.364 77.6833 162.169 77.6833H80.9531V73.8341H162.169C166.487 73.8341 169.999 77.3473 169.999 81.6623V145.971C169.999 150.288 166.487 153.8 162.169 153.8Z" fill="#4E4E4E"/>
<path d="M125.685 69.9043V33.5552C125.685 27.4612 120.726 22.5044 114.631 22.5044H35.4632C29.3684 22.5044 24.4102 27.4612 24.4102 33.5552V73.1055C25.6777 72.7356 26.961 72.4301 28.2585 72.189V33.5552C28.2585 29.5836 31.4905 26.3517 35.4632 26.3517H114.631C118.603 26.3517 121.835 29.5836 121.835 33.5552V69.9043H125.685Z" fill="#4E4E4E"/>
<path d="M24.4102 188.95C24.4102 195.042 29.3683 200 35.4631 200H114.631C120.725 200 125.684 195.042 125.684 188.95V157.731H121.835V188.95C121.835 192.921 118.602 196.152 114.631 196.152H35.4631C31.4904 196.152 28.2584 192.921 28.2584 188.95V150.316C26.9608 150.075 25.6775 149.769 24.4102 149.399V188.95Z" fill="#4E4E4E"/>
<path d="M29.6786 128.607L12.4165 111.349L18.1154 105.652L29.6786 117.212L52.9994 93.8979L58.6982 99.5951L29.6786 128.607ZM35.5573 75.7049C15.9195 75.7049 0 91.6203 0 111.252C0 130.884 15.9195 146.8 35.5573 146.8C55.1947 146.8 71.1142 130.884 71.1142 111.252C71.1142 91.6203 55.1947 75.7049 35.5573 75.7049Z" fill="#198754"/>
<path d="M80.9531 87.9145H168.076V102.637H80.9531V87.9145Z" fill="#4E4E4E"/>
<path d="M116.662 133.062H80.9531V129.215H116.662C117.723 129.215 118.585 130.077 118.585 131.138C118.585 132.202 117.723 133.062 116.662 133.062Z" fill="#4E4E4E"/>
<path d="M116.662 143.322H80.9531V139.475H116.662C117.723 139.475 118.585 140.337 118.585 141.399C118.585 142.461 117.723 143.322 116.662 143.322Z" fill="#4E4E4E"/>
<path d="M90.9822 190.799H59.1122C58.0488 190.799 57.1875 189.937 57.1875 188.875C57.1875 187.812 58.0488 186.951 59.1122 186.951H90.9822C92.0456 186.951 92.9069 187.812 92.9069 188.875C92.9069 189.937 92.0456 190.799 90.9822 190.799Z" fill="#4E4E4E"/>
<path d="M82.6052 35.748H67.489C66.4255 35.748 65.5645 34.8873 65.5645 33.8244C65.5645 32.7615 66.4255 31.9008 67.489 31.9008H82.6052C83.667 31.9008 84.5293 32.7615 84.5293 33.8244C84.5293 34.8873 83.667 35.748 82.6052 35.748Z" fill="#4E4E4E"/>
<path d="M146.27 29.5996H131.154C130.091 29.5996 129.23 28.7389 129.23 27.6762C129.23 26.6136 130.091 25.7529 131.154 25.7529H146.27C147.333 25.7529 148.195 26.6136 148.195 27.6762C148.195 28.7389 147.333 29.5996 146.27 29.5996Z" fill="#4E4E4E"/>
<path d="M120.509 18.959C119.447 18.959 118.586 18.0983 118.586 17.036V1.92429C118.586 0.860422 119.447 -0.000268936 120.509 -0.000268936C121.574 -0.000268936 122.434 0.860422 122.434 1.92429V17.036C122.434 18.0983 121.574 18.959 120.509 18.959Z" fill="#4E4E4E"/>
<path d="M126.911 22.8711C126.418 22.8711 125.927 22.6836 125.55 22.307C124.798 21.5553 124.798 20.3372 125.55 19.587L136.239 8.90113C136.991 8.14948 138.209 8.14948 138.961 8.90113C139.713 9.65279 139.713 10.8694 138.961 11.621L128.272 22.307C127.897 22.6836 127.404 22.8711 126.911 22.8711Z" fill="#4E4E4E"/>
<path d="M90.1524 35.748H88.8421C87.7789 35.748 86.918 34.8873 86.918 33.8244C86.918 32.7615 87.7789 31.9008 88.8421 31.9008H90.1524C91.2156 31.9008 92.0779 32.7615 92.0779 33.8244C92.0779 34.8873 91.2156 35.748 90.1524 35.748Z" fill="#4E4E4E"/>
</svg>
