<svg width="72" height="73" viewBox="0 0 72 73" fill="none" xmlns="http://www.w3.org/2000/svg">
<path d="M76.5 77.5273H-4.5V-3.47266H76.5V77.5273Z" fill="white"/>
<path d="M64.258 25.0892C64.1584 24.8539 64.0563 24.6203 63.951 24.388C63.3184 24.9242 62.6237 25.3892 61.8793 25.7708C61.9186 25.862 61.9579 25.9537 61.9972 26.0454C63.4677 29.523 64.2134 33.2177 64.2134 37.027C64.2134 40.8367 63.4677 44.531 61.9972 48.0085C60.576 51.3682 58.5413 54.3854 55.95 56.9767C53.3587 59.568 50.3412 61.6026 46.9819 63.0238C43.5043 64.4943 39.81 65.2403 36.0003 65.2403C32.1908 65.2403 28.4963 64.4943 25.0186 63.0238C21.6592 61.6026 18.6419 59.568 16.0506 56.9767C13.4592 54.3854 11.4248 51.3682 10.0037 48.0085C8.53304 44.531 7.78708 40.8367 7.78708 37.027C7.78708 33.2177 8.53304 29.523 10.0037 26.0454C11.4248 22.6861 13.4592 19.6686 16.0506 17.0773C18.6419 14.486 21.6592 12.4518 25.0186 11.0306C28.4963 9.56005 32.1908 8.81387 36.0003 8.81387C39.81 8.81387 43.5043 9.56005 46.9819 11.0306C47.0736 11.0694 47.1653 11.1087 47.2565 11.1485C47.6381 10.4036 48.1031 9.70893 48.6397 9.07627C48.407 8.97105 48.1734 8.86888 47.9381 8.76933C44.1566 7.17 40.1401 6.35877 36.0003 6.35877C31.8605 6.35877 27.844 7.17 24.0624 8.76933C20.4104 10.3141 17.1308 12.5251 14.3144 15.3413C11.4984 18.1575 9.28721 21.4373 7.7425 25.0892C6.143 28.8707 5.33203 32.8872 5.33203 37.027C5.33203 41.1669 6.143 45.1834 7.7425 48.9651C9.28721 52.6171 11.4984 55.8965 14.3144 58.7127C17.1308 61.529 20.4104 63.7403 24.0624 65.2848C27.844 66.8842 31.8605 67.6953 36.0003 67.6953C40.1401 67.6953 44.1566 66.8842 47.9381 65.2848C51.5904 63.7403 54.8698 61.529 57.686 58.7127C60.5022 55.8965 62.7137 52.6171 64.258 48.9651C65.8573 45.1834 66.6685 41.1669 66.6685 37.027C66.6685 32.8872 65.8573 28.8707 64.258 25.0892Z" fill="#47AD3A"/>
<path d="M66.2389 16.0993C66.2389 21.2407 62.0709 25.4082 56.93 25.4082C51.7886 25.4082 47.6211 21.2407 47.6211 16.0993C47.6211 10.9584 51.7886 6.79043 56.93 6.79043C62.0709 6.79043 66.2389 10.9584 66.2389 16.0993Z" fill="#47AD3A"/>
<path d="M54.9629 20.1816C54.6852 20.1816 54.4071 20.0759 54.1957 19.8641L51.971 17.6394C51.5474 17.2158 51.5474 16.5287 51.971 16.1047C52.3947 15.681 53.0818 15.681 53.5058 16.1047L54.9629 17.5622L59.8111 12.7136C60.2347 12.2899 60.9218 12.2899 61.3459 12.7136C61.7695 13.1376 61.7695 13.8247 61.3459 14.2483L55.7301 19.8641C55.5187 20.0759 55.2406 20.1816 54.9629 20.1816Z" fill="white"/>
<path d="M37.0782 44.4212V46.5468C37.0782 47.1116 36.6202 47.5699 36.0554 47.5699C35.4902 47.5699 35.0326 47.1116 35.0326 46.5468V44.4212C33.7719 43.9953 32.8647 42.8031 32.8647 41.3981C32.8647 39.6363 34.2929 38.2078 36.0554 38.2078C37.8175 38.2078 39.2457 39.6363 39.2457 41.3981C39.2457 42.8031 38.3385 43.9953 37.0782 44.4212ZM36.0002 30.0121C34.1806 30.0121 32.4527 30.4038 30.8956 31.1078V26.388C30.8956 23.5637 33.2012 21.2677 36.0296 21.2835C38.8466 21.2997 41.1047 23.6274 41.1047 26.4444V27.8184C41.6853 28.2694 42.1705 28.9741 42.1705 28.9741H41.1047V29.6862C41.1047 29.9336 41.3053 30.1347 41.5527 30.1347H42.7026C42.95 30.1347 43.1506 29.9336 43.1506 29.6862V26.4572C43.1506 22.5048 39.9729 19.249 36.0201 19.2379C32.0683 19.2272 28.8497 22.4389 28.8497 26.388V32.2793C25.6716 34.5252 23.5967 38.228 23.5967 42.4154C23.5967 49.2654 29.1501 54.8184 36.0002 54.8184C42.8502 54.8184 48.4035 49.2654 48.4035 42.4154C48.4035 35.565 42.8502 30.0121 36.0002 30.0121Z" fill="#040606"/>
</svg>
