<?xml version="1.0" encoding="UTF-8"?>
<svg id="Layer_2" data-name="Layer 2" xmlns="http://www.w3.org/2000/svg" viewBox="0 0 452.04 632.1">
  <defs>
    <style>
      .cls-1 {
        fill: #f6bb9f;
      }

      .cls-1, .cls-2, .cls-3, .cls-4, .cls-5, .cls-6, .cls-7, .cls-8, .cls-9, .cls-10, .cls-11, .cls-12, .cls-13, .cls-14, .cls-15, .cls-16, .cls-17, .cls-18, .cls-19, .cls-20, .cls-21, .cls-22, .cls-23, .cls-24, .cls-25, .cls-26, .cls-27, .cls-28 {
        stroke-width: 0px;
      }

      .cls-2 {
        fill: #eff0f0;
      }

      .cls-3 {
        fill: #e2e3e3;
      }

      .cls-4 {
        fill: #412d1b;
      }

      .cls-4, .cls-8, .cls-12, .cls-22 {
        fill-rule: evenodd;
      }

      .cls-5 {
        fill: #395b9a;
      }

      .cls-6 {
        fill: #392921;
      }

      .cls-7 {
        fill: #436bb2;
      }

      .cls-8 {
        fill: #335028;
      }

      .cls-9 {
        fill: #6a5c4a;
      }

      .cls-10 {
        fill: #fdefd5;
      }

      .cls-11 {
        fill: #37221f;
      }

      .cls-12 {
        fill: #796a56;
      }

      .cls-13 {
        fill: #331c19;
      }

      .cls-14 {
        fill: #dadbdc;
      }

      .cls-15 {
        fill: #8f9195;
      }

      .cls-16 {
        fill: #007c30;
      }

      .cls-17 {
        fill: #563531;
      }

      .cls-18 {
        fill: #f9cb9f;
      }

      .cls-19 {
        fill: #3e3a39;
      }

      .cls-20 {
        fill: #f6c2a7;
      }

      .cls-21 {
        fill: #f3a880;
      }

      .cls-22 {
        fill: #5f4c3f;
      }

      .cls-23 {
        fill: #f19670;
      }

      .cls-24 {
        fill: #fff;
      }

      .cls-25 {
        fill: #e5e6e7;
      }

      .cls-26 {
        fill: #8a3b3c;
      }

      .cls-27 {
        fill: #211613;
      }

      .cls-28 {
        fill: #e68081;
      }
    </style>
  </defs>
  <g id="_Ï_h_1" data-name="¹Ï¼h_1">
    <path class="cls-20" d="M58.18,262.76c6.16-11.3,11.14-23.23,14.86-35.55,1.54-5.12,2.88-10.52,1.9-15.78-.98-5.26-4.88-10.33-10.18-11.02-4.12-.54-8.08,1.57-11.71,3.6-4.73,2.66-9.47,5.31-14.2,7.97-.83.47-1.69.96-2.27,1.72-1.06,1.41-.87,3.49.1,4.96.98,1.47,2.59,2.4,4.26,2.98,4.82,1.68,10.48.68,14.42-2.56-.79,2.41-1.2,4.95-1.21,7.49-14.26,2.14-28.73,5.29-42.47,9.67,2.07,5.13,3.68,11.26,6.53,16,2.85,4.74,6.54,9.08,11.25,11.99,3.8-1.23,6.92-.29,10.92-.18,6.16.16,11.67-.67,17.8-1.28Z"/>
    <path class="cls-23" d="M27.28,246.79c2.16.63,4.52.82,6.64.08,2.12-.74,3.95-2.54,4.31-4.76,2.25,1.13,5.02,1.14,7.28.04s3.95-3.3,4.44-5.76c2.35,1.14,5.21,1.17,7.59.09-4.88-9.68.84-23.7-2.37-29.48-6.12,3.32-12.92,6.82-19.04,10.14-.03.02-.06.03-.09.05.14.52.35,1.02.65,1.47.98,1.47,2.59,2.4,4.26,2.98,4.82,1.68,10.48.68,14.42-2.56-.79,2.41-1.2,4.95-1.21,7.49-14.26,2.14-28.73,5.29-42.47,9.67,1.8,4.46,3.25,9.68,5.48,14.08.85.3,1.74.51,2.65.59,3.04.26,6.4-1.25,7.48-4.11Z"/>
    <path class="cls-20" d="M36.66,184.2c-3.78.97-6.01,5.36-5.38,9.21-3.57-2.11-8.4-1.86-11.72.62-3.32,2.48-4.94,7.04-3.93,11.06-2.61-2.11-6.89-.49-8.47,2.47-1.58,2.96-1.11,6.61-.07,9.8-2.77.46-6.05,1.33-6.9,4.01-.5,1.55.03,3.24.65,4.75,2.4,5.89,6.12,11.16,10.37,15.89,1.45,1.61,3,3.18,4.91,4.19,1.91,1.01,4.26,1.4,6.25.56,1.99-.84,3.43-3.11,2.89-5.2,2,1.35,4.67,1.93,6.88.96,2.22-.97,3.65-3.74,2.68-5.95,2.75,1.16,5.77,2.18,8.68,1.5,2.91-.68,5.45-3.7,4.56-6.55,2.66,1.64,6.24,2.16,8.86.46,2.05-1.34,3.15-3.8,3.38-6.24.23-2.44-.3-4.87-.89-7.25-2.08-8.35-5-16.49-8.7-24.26-2.41-5.05-7.52-11.71-14.05-10.03Z"/>
    <path class="cls-23" d="M57.54,236.47c-1.73-3.21-3.89-6.3-3.81-9.95.02-1.07,0-1.71.31-2.73-3.35,1.42-7.11,1.86-10.7,1.26-1.23-.21-2.45-.54-3.55-1.13-3.5-1.89-5.16-6.6-3.61-10.27,1.53.16,2.93.66,4.46.92,5.08.87,13.56.52,18.68-.07-5.1,7.17-3.37,14.71-1.76,21.97Z"/>
    <path class="cls-20" d="M64.76,200.41c-4.12-.54-8.08,1.57-11.71,3.6-4.73,2.66-9.47,5.31-14.2,7.97-.83.47-1.69.96-2.27,1.72-1.06,1.41-.87,3.49.1,4.96.98,1.47,2.59,2.4,4.26,2.98,4.82,1.68,10.48.68,14.42-2.56-.03.1-.06.2-.09.29,6.03-4.22,11.8-8.83,17.26-13.78-1.85-2.72-4.54-4.76-7.77-5.18Z"/>
    <path class="cls-3" d="M152.78,369.87c-20.35,2-65.62-48.14-70.62-54.78-5-6.63-23.43-53.21-23.45-53.32h0l-32.53-.43,3.07,29.66c2.39,12.79,14.47,50.12,28.79,66.37,14.32,16.25,100.24,78.17,100.24,78.17,26.98-14.23,4.08-66.61-5.5-65.67Z"/>
    <path class="cls-20" d="M393.85,260c-6.16-11.3-11.14-23.23-14.86-35.55-1.54-5.12-2.88-10.52-1.9-15.78.98-5.26,4.88-10.33,10.18-11.02,4.12-.54,8.08,1.57,11.71,3.6,4.73,2.66,9.47,5.31,14.2,7.97.83.47,1.69.96,2.27,1.72,1.06,1.41.87,3.49-.1,4.96-.98,1.47-2.59,2.4-4.26,2.98-4.82,1.68-10.48.68-14.42-2.56.79,2.41,1.2,4.95,1.21,7.49,14.26,2.14,28.73,5.29,42.47,9.67-2.07,5.13-3.68,11.26-6.53,16-2.85,4.74-6.54,9.08-11.25,11.99-3.8-1.23-6.92-.29-10.92-.18-6.16.16-11.67-.67-17.8-1.28Z"/>
    <path class="cls-23" d="M424.75,244.04c-2.16.63-4.52.82-6.64.08-2.12-.74-3.95-2.54-4.31-4.76-2.25,1.13-5.02,1.14-7.28.04s-3.95-3.3-4.44-5.76c-2.35,1.14-5.21,1.17-7.59.09,4.88-9.68-.84-23.71,2.37-29.48,6.12,3.32,12.92,6.82,19.04,10.14.03.02.06.03.09.05-.14.52-.35,1.02-.65,1.47-.98,1.47-2.59,2.4-4.26,2.98-4.82,1.68-10.48.68-14.42-2.56.79,2.41,1.2,4.95,1.21,7.49,14.26,2.14,28.73,5.29,42.47,9.67-1.8,4.46-3.25,9.68-5.48,14.08-.85.3-1.74.51-2.65.59-3.04.26-6.4-1.25-7.48-4.11Z"/>
    <path class="cls-20" d="M415.37,181.44c3.78.97,6.01,5.36,5.38,9.21,3.57-2.11,8.4-1.86,11.72.62,3.32,2.48,4.94,7.04,3.93,11.06,2.61-2.11,6.89-.49,8.47,2.47,1.58,2.96,1.11,6.61.07,9.8,2.77.46,6.05,1.33,6.9,4.01.5,1.55-.03,3.24-.65,4.75-2.4,5.89-6.12,11.16-10.37,15.89-1.45,1.61-3,3.18-4.91,4.19-1.91,1.01-4.26,1.4-6.25.56-1.99-.84-3.43-3.11-2.89-5.2-2,1.35-4.67,1.93-6.88.96-2.22-.97-3.65-3.74-2.68-5.95-2.75,1.17-5.77,2.18-8.68,1.5-2.91-.68-5.45-3.7-4.56-6.55-2.66,1.64-6.24,2.16-8.86.46-2.05-1.34-3.15-3.8-3.38-6.24-.23-2.44.3-4.87.89-7.25,2.08-8.35,5-16.49,8.7-24.26,2.41-5.05,7.52-11.71,14.05-10.03Z"/>
    <path class="cls-23" d="M394.49,233.71c1.73-3.21,3.89-6.3,3.81-9.95-.02-1.07,0-1.71-.31-2.73,3.35,1.42,7.11,1.86,10.7,1.26,1.23-.21,2.45-.54,3.55-1.13,3.5-1.89,5.16-6.6,3.61-10.27-1.53.16-2.93.66-4.46.92-5.08.87-13.56.52-18.68-.07,5.1,7.17,3.37,14.71,1.76,21.97Z"/>
    <path class="cls-20" d="M387.28,197.65c4.12-.54,8.08,1.57,11.71,3.6,4.73,2.66,9.47,5.31,14.2,7.97.83.47,1.69.96,2.27,1.72,1.06,1.41.87,3.49-.1,4.96-.98,1.47-2.59,2.4-4.26,2.98-4.82,1.68-10.48.68-14.42-2.56.03.1.06.2.09.29-6.04-4.22-11.8-8.83-17.26-13.78,1.85-2.72,4.54-4.76,7.77-5.18Z"/>
    <path class="cls-3" d="M301.14,369.32c20.37,1.72,64.95-49.05,69.86-55.75,4.91-6.7,22.69-53.53,22.71-53.64h0l32.52-.88-2.66,29.7c-2.21,12.82-13.77,50.32-27.87,66.76-14.1,16.45-99.15,79.55-99.15,79.55-27.17-13.86-5.01-66.55,4.59-65.74Z"/>
    <g>
      <path class="cls-4" d="M158.23,561.6c-3.78-6.97-16.4-3.15-21.13,3.12-6.73,8.92-5.37,10.55-12.63,18.06-7.27,7.51-15.71,19.18-17.11,29.11-1.65,11.76,9.76,29.32,23.77,14.6,6.37-6.69,11.94-15.24,16.78-20.25,4.84-5.01,9.86-8.52,8.91-13.1-.95-4.58,1.41-31.53,1.41-31.53Z"/>
      <path class="cls-22" d="M156.8,559.79c-4.87-4.35-15.46-.69-19.7,4.94-6.73,8.92-5.37,10.55-12.63,18.06-7.27,7.51-15.71,19.18-17.11,29.11-1.18,8.41,4.32,19.78,12.67,20.2-6.97-3.94-12.44-13.94-8.58-22.89,3.86-8.95,11.66-19.32,17.86-24.77,6.19-5.45,6.92-16.64,14.26-21.81,7.21-5.08,13.03-2.91,13.24-2.83Z"/>
    </g>
    <g>
      <path class="cls-22" d="M248.04,560.11h-6.67c-3.87,0-10.15.08-11.78,7.72-1.63,7.64-2.4,11.62-6.12,21.67-3.72,10.05-4.68,32.89,8.03,38.87,12.71,5.98,22.03-7.4,25.75-17.87,3.72-10.46-2.63-23.58-2.94-27.57-.31-3.99,2.94-22.59-6.28-22.83Z"/>
      <path class="cls-4" d="M250.48,560.11h-6.67c-3.87,0-10.15.08-11.77,7.72-1.63,7.64-2.4,11.62-6.12,21.67-3.72,10.05-4.68,32.89,8.03,38.87,12.71,5.98,22.03-7.4,25.75-17.87,3.72-10.46-2.63-23.58-2.94-27.57-.31-3.99,2.94-22.59-6.28-22.83Z"/>
      <path class="cls-12" d="M246.91,602.5l36.67,14.63.08-1.63.05.02h0c.44.21.89.35,1.35.42,6.08.96,11.32-10.63,11.7-25.89.38-15.26-4.23-28.41-10.31-29.37-.46-.07-.91-.07-1.36,0h-.04s0,0,0,0l-36.03,8.52c-9.05,1.16-11.24,27.62-2.09,33.29Z"/>
      <path class="cls-8" d="M280.93,560.68c-6.08-.96-11.32,10.63-11.7,25.89-.38,15.26,4.23,28.41,10.31,29.37,6.08.96,11.32-10.63,11.7-25.89.38-15.26-4.23-28.41-10.31-29.37Z"/>
      <path class="cls-12" d="M157.18,604.29l-11.33-24.01c-2.9-11.04,8.1-15.63,15.77-11.07,1.04.62,1.94,1.39,2.67,2.24,2.79,3.25-.62,30.68-.62,30.68l-6.49,2.16Z"/>
      <path class="cls-12" d="M277.5,476.25c-16.14-12.7-39.52-9.92-52.23,6.22-9.39,11.93-10.32,27.82-3.64,40.43h0l40.82,77.05c1.74,4.38,4.63,8.38,8.6,11.51,12.01,9.46,29.42,7.38,38.88-4.63,6.35-8.07,7.5-18.56,3.94-27.45l-23.55-83.94h0c-2.05-7.34-6.37-14.12-12.81-19.2Z"/>
      <path class="cls-12" d="M241.8,495.73c-5.38-19.82-25.82-31.53-45.64-26.14-14.66,3.98-24.87,16.19-27.03,30.29h0l-13.17,86.19c-1.21,4.56-1.28,9.49.04,14.37,4.01,14.76,19.22,23.47,33.98,19.46,9.91-2.69,17.09-10.43,19.53-19.69l31.14-81.43h0c2.73-7.12,3.31-15.13,1.16-23.05Z"/>
    </g>
    <path class="cls-9" d="M167.08,513.84c.81.38,1.78.81,2.91,1.19,3.61,1.24,8.83,2.44,14.69,3.11,5.92.57,11.25.48,15.12.1,1.88-.19,3.44-.38,4.52-.57,1.02-.14,1.61-.24,1.61-.29s-.59-.05-1.67-.1c-1.08,0-2.64-.05-4.52-.19-3.82-.24-8.99-.57-14.69-1.34-5.65-.76-10.71-1.82-14.42-2.53-1.35-.24-2.48-.43-3.44-.57,0,.38-.05.81-.11,1.19Z"/>
    <path class="cls-1" d="M235.15,297.63c-11.16,5.42-26.49,1.21-28.35,0,10.84,8.41,18.81,7.2,28.35,0Z"/>
    <g>
      <path class="cls-2" d="M152.64,482.1c.9,6.66,12.42,18.37,12.88,18.61,25.53,13.35,33.13,8.47,64.5,8.47,27.18,0,45.75,2.04,68.76-8.18.13-.06,6.18-10.59,6.22-10.73,4.96-17.66-4.23-98.76-9.5-120.63-19.82-15.99-36.87-14.4-50.98-16.34-22.39-.47-28.85-2.19-41.41-.9-7.96.82-29.68,4.74-44.87,16.43-3.3,23.98-7.32,100.66-5.61,113.27Z"/>
      <path class="cls-19" d="M167,514.82c.4-5-.43-8.76,1-11.85l128.98-1.19s-.64,8.94-1.81,13.74l-128.17-.7Z"/>
      <rect class="cls-15" x="214.72" y="501" width="23.36" height="15.32"/>
      <path class="cls-14" d="M262.5,353.8c-7.42-5.01-15.22-5.71-34.18-7.36-15.41-1.34-33.49,3.19-38.95,11.08-4.34,20.13,17.62,36.14,21.02,35.74,4.92-.58,14.57-24.16,17.66-24.03,3.1.13,9.63,26.81,15.73,24.59,6.1-2.23,25.91-34.71,18.72-40.02Z"/>
      <path class="cls-16" d="M231.96,380.13c-3.11,1.53-6.74,1.48-10.19-.67-6.19,40.99-4.74,63.83-13.19,86.92,4.7,6.32,14.23,19.1,14.23,19.1,0,0,10.38-11.33,15.91-17.8,2.05-28.04-5.3-53.5-6.75-87.54Z"/>
      <path class="cls-16" d="M216.45,382.92c1.92,2.8,10.97,4.45,10.97,4.45,0,0,8.46-1.48,10.38-4.28,1.4-2.04-.67-11.68-.67-11.68l-20.68,1s-1.4,8.47,0,10.51Z"/>
      <path class="cls-7" d="M152.64,482.1c.9,6.66,12.42,18.37,12.88,18.61,25.53,13.35,33.13,8.47,64.5,8.47,27.18,0,45.75,2.04,68.76-8.18.13-.06,6.18-10.59,6.22-10.73,4.96-17.66-4.23-98.76-9.5-120.63-17.75-11.51-18.8-12.55-32.9-14.49-4.94-.1-16.2,72.81-35.55,72.81-20.8,0-31.47-73.83-31.47-73.83-7.96.82-22.15,3.03-37.34,14.71-3.3,23.98-7.32,100.66-5.61,113.27Z"/>
      <path class="cls-5" d="M267.03,354.98l-6.87-.86s-11.17,37.65-12.45,41.23c-1.29,3.58-11.88,28.35-19.61,31.35-.78.3-5.05-.73-5.87-1.72-1.61-1.93-18.32-32.78-18.61-36.36-.29-3.58-7.52-35.82-8.59-36.69-1.07-.88-6.74,3.25-6.74,3.25,0,0,8.32,35.45,11.04,44.76,2.72,9.31,16.18,33.5,25.63,35.07,9.45,1.57,16.32-8.88,22.62-20.33,6.3-11.45,19.47-51.97,19.47-59.7Z"/>
      <path class="cls-25" d="M262.43,351.4c-3.49-6.47-20.49-9.8-35.88-10.18-16.22-.4-30.54,4.57-35.64,13.84-5.05,9.2,16.94,32.68,20.45,32.95,4.47.34,13.18-20.92,16.29-20.88,3.11.04,9.95,22.15,16.12,19.41,6.17-2.74,23.93-25.35,18.66-35.13Z"/>
      <path class="cls-1" d="M196.45,355.19c9.32-1.12,11.95-14.22,11.14-27.16h37.61c-.81,12.94,1.82,26.04,11.14,27.16-20.36,19.01-48.69,14.54-59.89,0Z"/>
    </g>
    <g>
      <path class="cls-1" d="M330.89,259.01c0,15.21,19.26,14.99,34.03,14.99s26.74-12.33,26.74-27.55-11.97-27.55-26.74-27.55-34.03,24.89-34.03,40.11Z"/>
      <path class="cls-21" d="M378.59,238.4c-4.71-5.47-29.93-12.76-39.5,21.42,5.01-10.94,17.93-11.24,18.69-5.17,1.06-4.71-4.1-7.75-8.96-6.53,2.13-8.66,18.53-16.71,29.78-9.72Z"/>
    </g>
    <g>
      <path class="cls-1" d="M124.27,259.01c0,15.21-19.26,14.99-34.03,14.99s-26.74-12.33-26.74-27.55,11.97-27.55,26.74-27.55,34.03,24.89,34.03,40.11Z"/>
      <path class="cls-21" d="M76.57,238.4c4.71-5.47,29.93-12.76,39.5,21.42-5.01-10.94-17.93-11.24-18.69-5.17-1.06-4.71,4.1-7.75,8.96-6.53-2.13-8.66-18.53-16.71-29.78-9.72Z"/>
    </g>
    <path class="cls-18" d="M184.51,50.78c-20.66,4.86-60.77,38.28-65.02,76.57-4.25,38.28-9.12,70.49-12.76,106.95-3.65,36.46,6.08,65.02,59.55,83.86,21.31,7.51,37.31,12.12,48.85,14.95,2.74.67,5.52,1.08,8.34,1.26h0c4.75.29,9.52-.11,14.14-1.24,11.55-2.83,27.57-7.45,48.92-14.97,53.48-18.84,63.2-47.4,59.55-83.86-3.65-36.46-4.39-69.35-12.76-106.95-9.52-42.74-44.36-71.71-65.02-76.57h-83.79Z"/>
    <g>
      <path class="cls-1" d="M213.01,239.91c3.62,2.05,9.97,3.28,9.97,3.28,0,0,6.34-1.23,9.97-3.28,3.62-2.05,6.49-1.64,6.19,1.64-.3,3.28-6.47,3.69-8.07,5.47-1.6,1.78-5.22,4.92-8.09,4.92s-6.49-3.14-8.09-4.92c-1.6-1.78-7.77-2.19-8.07-5.47-.3-3.28,2.57-3.69,6.19-1.64Z"/>
      <path class="cls-10" d="M230.71,239.28c-.1.12-3.85,2-8.61,1.69-4.76-.31-8.44-2.36-7.25-3.85,1.19-1.49,20.05-2.82,15.86,2.15Z"/>
    </g>
    <path class="cls-6" d="M308.34,169.18s-20.73-6.01-30.3-5.26c-9.57.75-20.19,1.69-22.26-1.78-2.07-3.48-1.81-17.51,6.73-19.01,8.54-1.5,26.67-.5,39.1,8.02,12.43,8.52,12.69,18.29,6.73,18.04Z"/>
    <path class="cls-6" d="M141.61,169.18s20.73-6.01,30.3-5.26c9.57.75,20.19,1.69,22.26-1.78,2.07-3.48,1.81-17.51-6.73-19.01-8.54-1.5-26.67-.5-39.1,8.02-12.43,8.52-12.69,18.29-6.73,18.04Z"/>
    <g>
      <path class="cls-26" d="M236.72,294.04c-3.69.31-7.19,1.91-10.89,2.16-5.11.35-10.01-1.89-15.04-2.86-5.41-1.03-11.25-.38-16.2,1.93-.79-1.16-1.49-2.39-2.07-3.68-1.55-3.46-2.24-7.24-2.86-10.98-1.48-8.87-2.67-19.2-3.54-28.15,2.7.57,5.41,1.08,8.13,1.53,7.22,10.46,19.33,17.65,31.95,16.92,12.05-.69,22.66-8.06,30.61-17.33,1.74-.31,3.48-.65,5.21-1.01-.17,11.37-.96,21.56-4.84,32.25-1.85,5.09-4.23,10.2-7.91,14.1-3.25-3.3-7.91-5.26-12.54-4.87Z"/>
      <path class="cls-24" d="M226.19,270.91c-12.62.73-24.73-6.46-31.95-16.92,20.67,3.43,41.93,3.3,62.56-.41-7.95,9.26-18.56,16.64-30.61,17.33Z"/>
      <path class="cls-28" d="M210.79,293.35c5.04.96,9.93,3.21,15.04,2.86,3.7-.25,7.2-1.86,10.89-2.16,4.63-.39,9.29,1.58,12.54,4.87-.84.88-1.74,1.7-2.71,2.45-3.56,2.71-7.9,4.21-12.25,5.23-7.82,1.84-16.12,2.24-23.81-.08-6.33-1.91-12.19-5.83-15.89-11.25,4.95-2.31,10.79-2.96,16.2-1.93Z"/>
    </g>
    <path class="cls-13" d="M153.06,202.62c.57-2.08,1.67-3.9,3.11-5.45-2.7-1.28-5.05-3.71-6.18-6.48-.26-.64.44-1.2.95-.77,1.29,1.09,2.9,2.12,4.48,2.48,1.75.39,3.5.53,5.2,1.09.07.03.12.07.16.09,3.7-2.08,8.01-3.22,11.61-3.5,9.17-.68,17.71,5.28,19.63,14.33.19.88-.63,1.39-1.25.74-5.6-5.82-10.92-9.74-18.81-9.03-7.18.65-11.29,6.36-17.29,9.35-.88.44-1.81-2.01-1.61-2.85Z"/>
    <path class="cls-13" d="M291.97,202.62c-.57-2.08-1.67-3.9-3.11-5.45,2.7-1.28,5.06-3.71,6.19-6.48.26-.64-.44-1.2-.95-.77-1.29,1.09-2.9,2.12-4.48,2.48-1.75.39-3.5.53-5.2,1.09-.07.03-.12.07-.16.09-3.7-2.08-8.01-3.22-11.61-3.5-9.17-.68-17.71,5.28-19.63,14.33-.19.88.63,1.39,1.25.74,5.6-5.82,10.92-9.74,18.81-9.03,7.18.65,11.29,6.36,17.29,9.35.88.44,1.81-2.01,1.61-2.85Z"/>
    <g>
      <g>
        <path class="cls-11" d="M83.79,92.61l12.74,136.09,12.2-.82c0-9.26,11.14-51.69,12.03-58.74,0,0,8.62-20.86,13.76-54.8,23.81.29,54.79-18.81,54.79-18.81,0,0-11.19,18.52-27.81,26.95,43,4.9,70.8-13.91,90.02-32.46-5.14,13.33-14.62,24.03-24.35,32.46,39.82-5,59.99-23.52,68.71-34.64,6.06,17.4,15.89,26.5,15.89,26.5,5.17,33.94,13.76,54.8,13.76,54.8.79,6.57,17.92,48.84,17.95,57.37l11.26-.11s13.41-102.05,14.26-129.87c0,0-12.18-18.23-29.49-26.47,1.05.32,18.23,5.99,29.49,17.79,0,0-9.8-23.49-43.19-29.58-10.18-29.55-38.24-53.45-55.62-58.26,11.89,12.63,15.06,20.03,15.06,20.03,0,0-25.11-19.58-81.46-17.85,16.93,4.61,25.56,11.6,26.22,12.15-.95-.35-19.66-7.21-71.06,13.52-52.82,21.28-75.18,64.77-75.18,64.77Z"/>
        <path class="cls-17" d="M357.8,99s-11.33-18.11-34.13-28.11c7.03,5.94,8.17,10.72,8.17,10.72,0,0-5.74-5.22-12.04-7.1,0,0,4.39,6.96,6.92,11.45-6.49-4.2-10.8-7.25-10.8-7.25,0,0,1.43,6.96,4.01,10-3.15-1.88-4.88-4.49-4.88-4.49,0,0-.86,6.56,3.3,12.92-4.88-3.06-7.03-6.98-7.03-6.98,0,0,5.74,23.19,21.08,32.17-4.73-6.81-7.31-20.43-7.31-20.43,0,0,5.16,4.64,10.47,7.97-3.58-5.36-7.46-15.65-7.46-15.65,0,0,11.76,8.41,19.64,21.16-2.72-8.12-6.6-19.42-11.04-25.65,8.46,7.97,10.9,11.45,10.9,11.45,0,0-3.15-10.87-6.88-15.51,7.46,5.07,17.06,13.33,17.06,13.33Z"/>
        <path class="cls-17" d="M247.97,71.46s-13.05-1.16-36.56,8.84c2.72-5.65,9.46-10.29,9.46-10.29,0,0-24.09,5.07-38.57,16.23,6.88-12.61,25.52-19.42,25.52-19.42,0,0-25.81,3.04-47.6,19.42,6.45-12.03,18.21-18.84,18.21-18.84,0,0-33.7,9.13-51.76,31.88,9.46-19.71,39-43.62,64.67-51.88-22.94,1.45-40.86,14.2-40.86,14.2,0,0,12.62-16.38,24.66-20.29-11.61,1.59-19.36,9.27-19.36,9.27,0,0,18.35-24.2,60.08-23.77,0,0-12.62,1.74-19.07,7.68,13.48-2.46,20.5.14,20.5.14,0,0-13.33,2.61-19.07,7.39,11.61-1.3,24.09,2.9,24.09,2.9,0,0-20.5,1.74-38.86,13.91,23.52-6.96,44.02-3.62,44.02-3.62,0,0-13.19,2.61-18.21,6.81,12.04-2.03,22.37,0,22.37,0l-8.47,3.48s12.06-1.01,24.82,5.94Z"/>
      </g>
      <path class="cls-27" d="M109.65,204.05c5.96,2.49,9.9,8.18,11.21,10.3,6.47,14.53,21.01,24.67,37.94,24.7,19.66.03,36.14-13.58,40.51-31.9,2.09-2.45,7.75-8.16,16.66-10.3,1.95.5,4.23.8,6.67.8,2.53,0,4.88-.3,6.87-.82,9.44,2.22,15.28,8.48,17.13,10.73,4.44,18.17,20.8,31.67,40.33,31.7,16.96.03,31.56-10.1,38.05-24.65,1.36-2.16,5.29-7.74,11.2-10.19,0,0,2.88-5.13-.19-11.29,0,0-5.46-1.65-9.69-9.05-5.62-16.27-21.06-27.97-39.24-28-16.99-.03-31.61,10.14-38.09,24.74-3.86,4.01-9.08,6.32-14.52,7.2-.95.15-1.91.25-2.87.33-2.32-.95-5.48-1.54-8.96-1.54-3.44,0-6.56.56-8.87,1.48-.38-.04-.76-.06-1.14-.1-2.86-.35-5.69-1.05-8.34-2.2-1.18-.52-5.07-2.31-6.84-3.98-6.13-15.28-21.06-26.09-38.54-26.12-18.16-.03-33.61,11.59-39.31,27.81-4.26,7.44-9.75,9.09-9.75,9.09-3.09,6.16-.22,11.29-.22,11.29ZM250.37,197.61c.03-20.25,16.47-36.64,36.72-36.61,20.25.03,36.64,16.48,36.61,36.73s-16.47,36.64-36.72,36.61c-20.25-.03-36.64-16.48-36.61-36.73ZM122.2,197.4c.03-20.25,16.47-36.64,36.72-36.61,20.25.03,36.64,16.48,36.6,36.73s-16.47,36.64-36.72,36.61c-20.25-.03-36.64-16.48-36.61-36.73ZM337.24,204.84l8.22,1.04,5.35-4.51,7.19-.81c-4.78-5.17-17.66-7.37-20.26-7.77-.25.09-.5.15-.76.15.09.2.18.38.29.61,2.66,5.55-.02,11.3-.02,11.3ZM88.01,200.12l7.19.84,5.33,4.53,8.22-1.01s-2.66-5.76.02-11.3c.11-.23.2-.41.29-.61-.26,0-.51-.06-.76-.15-2.6.39-15.49,2.55-20.29,7.7Z"/>
    </g>
  </g>
</svg>