<?xml version="1.0" encoding="UTF-8"?>
<svg id="Layer_2" data-name="Layer 2" xmlns="http://www.w3.org/2000/svg" viewBox="0 0 419.95 718.47">
  <defs>
    <style>
      .cls-1 {
        fill: #f6bb9f;
      }

      .cls-1, .cls-2, .cls-3, .cls-4, .cls-5, .cls-6, .cls-7, .cls-8, .cls-9, .cls-10, .cls-11, .cls-12, .cls-13, .cls-14, .cls-15, .cls-16, .cls-17, .cls-18, .cls-19, .cls-20, .cls-21, .cls-22, .cls-23, .cls-24, .cls-25, .cls-26, .cls-27, .cls-28, .cls-29 {
        stroke-width: 0px;
      }

      .cls-2 {
        fill: #eff0f0;
      }

      .cls-3 {
        fill: #e2e3e3;
      }

      .cls-4 {
        fill: #395b9a;
      }

      .cls-5 {
        fill: #392921;
      }

      .cls-6 {
        fill: #eec8ad;
      }

      .cls-7 {
        fill: #de7877;
      }

      .cls-8 {
        fill: #436bb2;
      }

      .cls-9 {
        fill: #6a5c4a;
      }

      .cls-10 {
        fill: #fdefd5;
      }

      .cls-11 {
        fill: #37221f;
      }

      .cls-12 {
        fill: #331c19;
      }

      .cls-13 {
        fill: #291405;
      }

      .cls-14 {
        fill: #e9a690;
      }

      .cls-15 {
        fill: #dadbdc;
      }

      .cls-16 {
        fill: #8f9195;
      }

      .cls-17 {
        fill: #007c30;
      }

      .cls-18 {
        fill: #5f4c3f;
      }

      .cls-19 {
        fill: #412d1b;
      }

      .cls-20 {
        fill: #563531;
      }

      .cls-21 {
        fill: #f9cb9f;
      }

      .cls-22 {
        fill: #3e3a39;
      }

      .cls-23 {
        fill: #f3a880;
      }

      .cls-24 {
        fill: #fff;
      }

      .cls-25 {
        fill: #a73837;
      }

      .cls-26 {
        fill: #e5e6e7;
      }

      .cls-27 {
        fill: #8a3b3c;
      }

      .cls-28 {
        fill: #211613;
      }

      .cls-29 {
        fill: #796a56;
      }
    </style>
  </defs>
  <g id="_Ï_h_1" data-name="¹Ï¼h_1">
    <path class="cls-6" d="M100.37,389.03l-17-40.34c1.84-5.58,11.61-15.72,12.3-21.49.27-3.49-1.81-9.33-1.86-13.27.26-3.49,2.89-11.05,1.04-13.95-6.72-10.55-10.86,7.19-11.34,11.83-.69,5.77-5.03,14.07-10.97,11.9-4.43-1.63-7.56-4.02-11.35-7.01-6.13-5.35-4.33-9.48-4.22-17.59.27-20.36,25.13-.88,28.37-5.44,2.27-7.86-10.21-13.11-15.75-15.21-7.85-2.5-14.39-3.59-20.29,2.48-5.54,5.42-3.6,13.22-5.79,20.22-10.59-11.54-1.25-8.33-22.39-24.97-9.1-7.16-15.2,4.68-3.65,14.87,6.9,6.08,8.3,7.51,12.25,16.03-4.57-3.13-24.04-23.61-29.42-11.06-2.84,6.59,15.41,14.41,20.56,25.63-.21.2-.43.41-.64.6-5.22-4.48-3.81-6.86-10.14-8.28-9.07-2.31-10.03.67-5.13,6.2,10.18,11.14,10.17,7.55,17.66,25.29l4.86,7.31c2.09,2.15,4.35,4.04,6.66,5.45,6.8,3.9,16.74,3.86,23.69,7,0,0,14.47,22.32,19.24,35.9l23.31-12.1Z"/>
    <path class="cls-3" d="M225.2,367.08c4.03,8.33,7.1,25.16-.24,31.23-2.45,2.02-23.21,13.08-46.88,25.07-48,24.3-67.42,18.26-76.95,10.71-6.18-4.9-30.47-36.92-44.41-67.29,8.89-7.84,18.12-15.06,28.87-19.56,7.51,16.34,29.5,46.47,34.33,54.71,15.36-5.41,52.47-24.25,82.96-41.46,8.3-4.68,18.28-1.73,22.3,6.61Z"/>
    <g>
      <g>
        <path class="cls-13" d="M236.6,689.57c0,1.92.03,3.63-.17,5.25-5.88,4.97-24.62,18.62-36.57,21.73-11.96,3.08-38.63,3.19-43.12-4.93-.1-3.98-.78-5.29,0-7.48.13-.44.34-.88.64-1.29.97-1.43,1.71-2.25,3.69-3.21,33.38-15.79,72.71-16.97,74.59-15.11.34.33.54.82.67,1.43.27,1.04.27,2.36.27,3.63Z"/>
        <path class="cls-18" d="M236.6,689.57c0,1.92.03,3.63-.17,5.25-5.88,4.97-24.62,18.62-36.57,21.73-11.96,3.08-39.86,2.16-43.12-4.93-.1-3.98-.78-5.29,0-7.48,6.31,6.48,27.84,5.77,37.78,4.39,10.51-1.43,17.19-4.86,28.92-12.74,6.78-4.56,10.55-7.69,12.9-9.83.27,1.04.27,2.36.27,3.63Z"/>
      </g>
      <path class="cls-19" d="M200.05,646.59c.68,20.89-9.23,28.87-9.24,28.88-6.67,6.95-10.87,10.62-20.13,16.32-1.65,1.02-3.06,1.9-4.3,2.72-5.57,3.68-7.32,5.74-7.69,9.06,9.03,5.08,29.49,4.12,39.76,2.61,1.61-.22,2.96-.47,3.96-.71,7.59-1.76,28.55-15.9,32.17-19.91.23-.64.36-1.61.4-2.78h0c2.95-2.21-.54-8.47-1.33-15.25-.79-6.79-34.29-41.82-33.61-20.93Z"/>
    </g>
    <g>
      <g>
        <path class="cls-13" d="M277.5,689.57c0,1.92-.03,3.63.17,5.25,5.88,4.97,24.62,18.62,36.57,21.73,11.96,3.08,38.63,3.19,43.12-4.93.1-3.98.78-5.29,0-7.48-.13-.44-.34-.88-.64-1.29-.97-1.43-1.71-2.25-3.69-3.21-33.38-15.79-72.71-16.97-74.59-15.11-.34.33-.54.82-.67,1.43-.27,1.04-.27,2.36-.27,3.63Z"/>
        <path class="cls-18" d="M277.5,689.57c0,1.92-.03,3.63.17,5.25,5.88,4.97,24.62,18.62,36.57,21.73,11.96,3.08,39.87,2.16,43.12-4.93.1-3.98.78-5.29,0-7.48-6.31,6.48-27.84,5.77-37.78,4.39-10.51-1.43-17.19-4.86-28.92-12.74-6.78-4.56-10.55-7.69-12.9-9.83-.27,1.04-.27,2.36-.27,3.63Z"/>
      </g>
      <path class="cls-19" d="M314.06,646.59c-.68,20.89,9.23,28.87,9.24,28.88,6.67,6.95,10.87,10.62,20.13,16.32,1.65,1.02,3.06,1.9,4.3,2.72,5.57,3.68,7.32,5.74,7.69,9.06-9.03,5.08-29.49,4.12-39.76,2.61-1.61-.22-2.96-.47-3.96-.71-7.59-1.76-28.55-15.9-32.17-19.91-.23-.64-.36-1.61-.4-2.78h0c-2.95-2.21.54-8.47,1.33-15.25.79-6.79,34.29-41.82,33.61-20.93Z"/>
    </g>
    <g>
      <path class="cls-29" d="M322.15,670.79c-10.12,8.99-13.81,11.76-28.29,9.65-6.73-.96-13.02-2.96-17.97-5.88,1.34-3.97,1.78-11.14,1.78-17.49s-.97-23.99-2.21-32.36c-1.67-10.85-6.73-14-6.73-25.57s-8.86-21.03-16.45-50.47c-.05.24-.11.48-.16.72v.05c-3.55,15.29-11.72,43.44-13.92,56.01-2.21,12.76-1.45,28.72-2.91,41.34-.86,7.41-3.55,16.15-.43,26.53-14.42,10.32-19.86,8.75-33.37,2.82-3.71-1.63-6.56-3.58-8.13-5.74,2.26-3.97,2.43-19.5,2.43-23.51s-1.45-17.78-.11-29.73c1.34-11.95-9.23-115.8-9.23-115.8,8.88-3.78,23.73-6.69,40.47-8.32,33.26-3.25,73.67-1.43,88.2,8.84.43,2.87.75,6.55,1.13,10.75,0,.38.05.81.11,1.19,1.83,23.71-1.01,56.67-.04,66.42.75,7.41-2.58,17.6-1.82,28.4.59,8.46,3.39,15.93,2.69,23.08-.89,9.16.72,22.2,4.95,39.05Z"/>
      <path class="cls-9" d="M293.86,680.44c-6.73-.96-13.02-2.96-17.97-5.88,1.34-3.97,1.78-11.14,1.78-17.49s-.97-23.99-2.21-32.36c-1.67-10.85-6.73-14-6.73-25.57s-8.86-21.03-16.45-50.47c-.05.24-.11.48-.16.72-.11-.96-.65-1.67-2.48-2.53-3.66-1.72-6.57-4.16-9.74-6.83-.48-.38-1.08-.91-1.02-1.48,0-1.24,2.04-1.48,3.34-1.15,3.77.96,7.16,2.82,10.92,3.54,1.99.38,3.98.48,5.87,1.05,3.5,1.05,6.08,3.82,7.21,6.93,1.45,3.87,1.35,5.05,2.21,9.16,1.29,6.12,3.81,9.99,5.05,16.16,6.24,31.64,15.22,28.16,13.66,41.73-1.56,13.57,0,27.48,3.12,38.28,2.74,9.56,7.75,16.11,3.61,26.19Z"/>
      <path class="cls-9" d="M316.27,512.64c-.97.14-2.1.33-3.44.57-3.71.72-8.77,1.77-14.42,2.53-5.7.77-10.87,1.1-14.69,1.34-1.88.14-3.44.19-4.52.19-1.08.05-1.67.05-1.67.1s.59.14,1.61.29c1.08.19,2.64.38,4.52.57,3.87.38,9.2.48,15.12-.1,5.87-.67,11.09-1.86,14.69-3.11,1.13-.38,2.1-.81,2.91-1.19-.05-.38-.11-.81-.11-1.19ZM233.4,512.4c-1.13-.24-2.74-.19-4.68-.33-4.09-.05-9.42-.19-15.34-.29-5.38-.19-10.28-.48-14.1-.72-6.46-7.5,13.88-9.61,25.24-11.33l2.42-6.69c-16.74,1.63-31.59,4.54-40.47,8.32,0,0,10.57,103.85,9.23,115.8-1.35,11.95.11,25.76.11,29.73s-.17,19.55-2.43,23.51c1.56,2.15,4.41,4.11,8.13,5.74,8.13-13.33,3.83-34.27.5-42.01-3.77-8.89-.91-8.03.97-16.06,1.88-8.03-5.08-53.54-7.45-60.28-2.37-6.79,2.37-20.87,6.19-28.04.81-1.58,1.45-2.96,1.94-4.25,2.04.53,4.3,1,6.73,1.34,4.74.62,9.04.76,12.11.48,3.12-.14,5.06-.53,5.06-.62s-1.88-.62-4.95-1.05c-3.01-.57-7.21-.91-11.78-1.48-2.31-.33-4.52-.67-6.51-1,.54-3.01-.27-5.83-2.91-9.46,3.39.57,7.48,1,11.89,1.15,6.08.24,11.62-.14,15.61-.81,1.94-.38,3.55-.62,4.57-1.05,1.08-.24,1.67-.38,1.67-.48,0-.05-.59-.1-1.72-.1Z"/>
    </g>
    <path class="cls-1" d="M248.31,297.63c11.16,5.42,26.49,1.21,28.35,0-10.84,8.41-18.81,7.2-28.35,0Z"/>
    <g>
      <path class="cls-2" d="M330.81,482.1c-.9,6.66-12.42,18.37-12.88,18.61-25.53,13.35-33.13,8.47-64.5,8.47-27.18,0-45.75,2.04-68.76-8.18-.13-.06-6.18-10.59-6.22-10.73-4.96-17.66,4.23-98.76,9.5-120.63,19.82-15.99,36.87-14.4,50.98-16.34,22.39-.47,28.85-2.19,41.41-.9,7.96.82,29.68,4.74,44.87,16.43,3.3,23.98,7.32,100.66,5.61,113.27Z"/>
      <path class="cls-22" d="M316.45,514.82c-.4-5,.43-8.76-1-11.85l-128.98-1.19s.64,8.94,1.81,13.74l128.17-.7Z"/>
      <rect class="cls-16" x="245.37" y="501" width="23.36" height="15.32"/>
      <path class="cls-15" d="M220.95,353.8c7.42-5.01,15.22-5.71,34.18-7.36,15.41-1.34,33.5,3.19,38.95,11.08,4.34,20.13-17.62,36.14-21.02,35.74-4.92-.58-14.57-24.16-17.66-24.03s-9.63,26.81-15.73,24.59c-6.1-2.23-25.91-34.71-18.72-40.02Z"/>
      <path class="cls-17" d="M251.49,380.13c3.11,1.53,6.74,1.48,10.19-.67,6.19,40.99,4.74,63.83,13.19,86.92-4.7,6.32-14.23,19.1-14.23,19.1,0,0-10.38-11.33-15.91-17.8-2.05-28.04,5.3-53.5,6.75-87.54Z"/>
      <path class="cls-17" d="M267,382.92c-1.92,2.8-10.97,4.45-10.97,4.45,0,0-8.46-1.48-10.38-4.28-1.4-2.04.67-11.68.67-11.68l20.68,1s1.4,8.47,0,10.51Z"/>
      <path class="cls-8" d="M330.81,482.1c-.9,6.66-12.42,18.37-12.88,18.61-25.53,13.35-33.13,8.47-64.5,8.47-27.18,0-45.75,2.04-68.76-8.18-.13-.06-6.18-10.59-6.22-10.73-4.96-17.66,4.23-98.76,9.5-120.63,17.75-11.51,18.8-12.55,32.9-14.49,4.94-.1,16.2,72.81,35.55,72.81,20.8,0,31.47-73.83,31.47-73.83,7.96.82,22.15,3.03,37.34,14.71,3.3,23.98,7.32,100.66,5.61,113.27Z"/>
      <path class="cls-4" d="M216.43,354.98l6.87-.86s11.17,37.65,12.45,41.23,11.88,28.35,19.61,31.35c.78.3,5.05-.73,5.87-1.72,1.61-1.93,18.32-32.78,18.61-36.36.29-3.58,7.52-35.82,8.59-36.69,1.07-.88,6.74,3.25,6.74,3.25,0,0-8.32,35.45-11.04,44.76-2.72,9.31-16.18,33.5-25.63,35.07-9.45,1.57-16.32-8.88-22.62-20.33-6.3-11.45-19.47-51.97-19.47-59.7Z"/>
      <path class="cls-26" d="M221.02,351.4c3.49-6.47,20.49-9.8,35.88-10.18,16.22-.4,30.54,4.57,35.64,13.84,5.05,9.2-16.94,32.68-20.45,32.95-4.47.34-13.18-20.92-16.29-20.88-3.11.04-9.95,22.15-16.12,19.41-6.17-2.74-23.93-25.35-18.66-35.13Z"/>
      <path class="cls-1" d="M287,355.19c-9.32-1.12-11.95-14.22-11.14-27.16h-37.61c.81,12.94-1.82,26.04-11.14,27.16,20.36,19.01,48.69,14.54,59.89,0Z"/>
    </g>
    <g>
      <path class="cls-6" d="M353.63,455.55c-3.87,3.66-11.4,18.45-17.48,21.31-6.46,2.97-14.85.96-21.11,5.4-6.13,4.78-8,8.41-11.39,15.55-2.33,5.19-2.97,12.08,1.94,9.64,6.95-3.46,4-5.64,10.88-10.32-3.5,7.03-6.79,8.1-6.38,14.67.13,2.04,2.44,3.21,4.15,2.52,3.31-1.34,5.29-3.96,8.71-7.07.93,4.26,4.6,6.25,8.5,5.08,2.47,17.52,21.97-2.28,24.65-10.31,2.44-6.77-1.72-12.81,1.16-19.37,2.71-6.11,8.69-11.21,12.99-16.03.68-1.04,1.5-1.76,2.62-2.61l-19.25-8.46Z"/>
      <path class="cls-14" d="M315.99,481.66c6.14-3.64,14.03-1.97,20.17-4.79,6.07-2.86,13.61-17.65,17.48-21.31l19.25,8.46c-1.12.84-1.94,1.57-2.62,2.61-4.3,4.81-10.28,9.92-12.99,16.03-.68,1.54-.96,3.05-1.04,4.54-5.03-.65-10.16-3.55-14.49-5.12-8.12-3.77-17.26-3.5-25.76-.42Z"/>
      <path class="cls-14" d="M325.98,499c0,2.92-.58,5.84.58,8.17,1.17,3.5,6.42,2.92,9.34.58-1.75,3.5-1.75,8.17,1.75,11.09,1.16.58,2.31-.56,3.47-.58-4.56,2.2-8.63,1.45-9.67-5.94-3.89,1.17-7.57-.81-8.5-5.08-3.93,3.57-4.65,5.35-8.71,7.07-.9.38-2.44.28-3.54-.85h0c9.46-4.5,10.69-5.32,15.27-14.47Z"/>
      <path class="cls-3" d="M314.31,374.66c2.14-4.27,3.05-8.38,7.51-7.87,5.96,2.35,21.27,11.25,34.79,22.28,9.02,7.36,17.72,14.28,23.15,18.56,3.56,2.8,6.24,5.09,8.2,6.99,2.23,2.16,9,8.73,6.25,17.87-.55,1.82-3.71,5.48-35.35,56.68-7.41-7.36-14.04-10.06-24.29-13.6,10.13-16.43,19.36-34.79,25.03-44.61-6.83-5.38-18.39-13.65-30.94-22.3-10.36-9.22-20.43-19.67-14.35-34Z"/>
    </g>
    <g>
      <path class="cls-1" d="M152.56,259.01c0,15.21-19.26,14.99-34.03,14.99s-26.74-12.33-26.74-27.55,11.97-27.55,26.74-27.55,34.03,24.89,34.03,40.11Z"/>
      <path class="cls-23" d="M104.86,238.4c4.71-5.47,29.93-12.76,39.5,21.42-5.01-10.94-17.93-11.24-18.69-5.17-1.06-4.71,4.1-7.75,8.96-6.53-2.13-8.66-18.53-16.71-29.78-9.72Z"/>
    </g>
    <g>
      <path class="cls-1" d="M359.18,259.01c0,15.21,19.26,14.99,34.03,14.99s26.74-12.33,26.74-27.55-11.97-27.55-26.74-27.55-34.03,24.89-34.03,40.11Z"/>
      <path class="cls-23" d="M406.88,238.4c-4.71-5.47-29.93-12.76-39.5,21.42,5.01-10.94,17.93-11.24,18.69-5.17,1.06-4.71-4.1-7.75-8.96-6.53,2.13-8.66,18.53-16.71,29.78-9.72Z"/>
    </g>
    <path class="cls-21" d="M298.94,50.78c20.66,4.86,60.77,38.28,65.02,76.57,4.25,38.28,9.12,70.49,12.76,106.95,3.65,36.46-6.08,65.02-59.55,83.86-21.31,7.51-37.31,12.12-48.85,14.95-2.74.67-5.52,1.08-8.34,1.26h0c-4.75.29-9.52-.11-14.14-1.24-11.55-2.83-27.57-7.45-48.92-14.97-53.48-18.84-63.2-47.4-59.55-83.86s4.39-69.35,12.76-106.95c9.52-42.74,44.36-71.71,65.02-76.57h83.79Z"/>
    <g>
      <path class="cls-1" d="M270.44,239.91c-3.62,2.05-9.97,3.28-9.97,3.28,0,0-6.34-1.23-9.97-3.28-3.62-2.05-6.49-1.64-6.19,1.64.3,3.28,6.47,3.69,8.07,5.47,1.6,1.78,5.22,4.92,8.09,4.92s6.49-3.14,8.09-4.92c1.6-1.78,7.77-2.19,8.07-5.47.3-3.28-2.57-3.69-6.19-1.64Z"/>
      <path class="cls-10" d="M252.74,239.28c.1.12,3.85,2,8.61,1.69,4.76-.31,8.44-2.36,7.25-3.84-1.19-1.49-20.05-2.82-15.86,2.15Z"/>
    </g>
    <g>
      <ellipse class="cls-24" cx="205.91" cy="198.01" rx="17.76" ry="21.32"/>
      <ellipse class="cls-12" cx="204.9" cy="198.01" rx="13.17" ry="21.32"/>
      <path class="cls-12" d="M188.79,194.19c.41-.58,4.36-14.81,16.79-14.48,12.43.33,18.09,13.77,18.09,13.77,0,0-1.73-17.45-18.77-19.67-17.04-2.22-21.23,17.94-20.41,19.34.82,1.4,4.3,1.04,4.3,1.04Z"/>
      <path class="cls-24" d="M214.79,189.51c0-1.77-1.44-3.21-3.21-3.21s-3.21,1.44-3.21,3.21,1.44,3.21,3.21,3.21,3.21-1.44,3.21-3.21Z"/>
    </g>
    <path class="cls-5" d="M175.11,169.18s20.73-6.01,30.3-5.26c9.57.75,20.19,1.69,22.26-1.78,2.07-3.48,1.81-17.51-6.73-19.01-8.54-1.5-26.67-.5-39.1,8.02-12.43,8.52-12.69,18.29-6.73,18.04Z"/>
    <path class="cls-5" d="M341.84,169.18s-20.73-6.01-30.3-5.26c-9.57.75-20.19,1.69-22.26-1.78-2.07-3.48-1.81-17.51,6.73-19.01,8.54-1.5,26.67-.5,39.1,8.02,12.43,8.52,12.69,18.29,6.73,18.04Z"/>
    <g>
      <path class="cls-27" d="M289.77,257.93c13.45-2.07,21.42,10.1,16.16,24.8-8.57,19.36-27.82,30.57-46.02,30.46-1.16-.17-3.08.04-4.33-.57-.23-.02-.47-.06-.7-.11-8.72-2.23-18.29-6.79-25.41-13.76-.8-.65-1.59-1.32-2.36-2.01-4.62-4.48-11.12-12.65-12.87-19.39-2.08-11.29,5.87-17.91,14.6-18.64,3.23-.47,6.42.47,9.61.93,5.01.98,10.05,1.39,15.07,1.97.81.03,1.62.06,2.43.07.54-.34,1.27-.41,1.98-.1,1.37.07,2.79.1,4.22.1.56,0,1.11-.01,1.67-.03.08,0,.17,0,.25.02,1.08-.01,2.15-.04,3.18-.08,7.59-.48,15.15-2.1,22.52-3.68Z"/>
      <path class="cls-25" d="M282.82,275.86c-1.27-2.86-3.27-5.34-5.68-6.91-1.92-1.28-3.59,2.11-1.7,3.43-.19.07-.37.17-.52.31-.91-.85-2.39-.19-2.76,1.08-.2-.05-.42-.06-.62-.03-.05-.16-.1-.32-.16-.48-.36-.89-1.14-1.37-1.96-1.15-.55-.24-.98-.25-1.33-.08-.35-.34-.79-.46-1.21-.4,0,.03.02.05.03.08.15.48.28.99.38,1.49.06.29.11.58.15.87,0,.06.02.12.03.18.05.36.09.72.12,1.08.09,1.2.08,2.53-.23,3.69,0,.02-.01.03-.02.05-.08.28-.17.54-.27.8-.03.08-.07.16-.1.24-.38.88-.9,1.65-1.51,2.35-.41.47-.9.86-1.42,1.16-.08.04-.16.09-.24.13-.07.03-.14.07-.21.1-.08.04-.16.06-.24.1-.07.03-.14.06-.22.08-.08.03-.16.04-.25.06-.08.02-.15.04-.23.05-.08.02-.17.02-.25.03-.07,0-.14.02-.22.03-.08,0-.16,0-.24,0-1.42,0-2.78-.76-3.82-1.87-.57-.6-.95-1.4-1.27-2.21-.22-.55-.37-1.13-.46-1.72-.33-.7-.29-1.48-.15-2.26.11-.63.23-1.25.35-1.87.13-.7.25-1.43.44-2.11-2.27-7.52-10.79-2.56-13.14,3.03-2.58,4.59-2.61,10.34-1.79,15.58.46,1.59,1.38,2.92,2.16,4.31.4.67.86,1.43,1.59,1.61.14.04.29.07.43.07.72,0,1.42-.54,1.63-1.38,3.92,1.43,8.99.38,12.53-1.97.77.84,2.12.5,2.6-.56,1.27.35,2.84.32,4.18.29.75-.01,1.43-.03,1.94.02.21.26.48.46.78.56.57.19,1.21,0,1.63-.5.2.16.43.26.69.31.32.05.63-.01.91-.16.29.62.84,1.05,1.48,1.05.78,0,1.43-.64,1.63-1.48.21.1.43.16.64.16.09,0,.18-.01.28-.03.11.25.26.48.44.71.32.43.8.61,1.27.57.15.28.35.53.59.7.32.19.62.27.89.27,1.53,0,2.21-2.76,2.77-4.27,1.25-4.82,1.58-10.53-.31-15.17Z"/>
      <path class="cls-7" d="M260.73,313.26s.06,0,.1.01c-.04,0-.08,0-.12-.01h0s.01,0,.02,0c0,0-.01,0-.02,0,0,0-.01,0-.02,0,0,0,0,0,0,0,0,0,0,0,0,0,0,0,0,0,0,0,0,0-.02,0-.03,0,0,0,0,0,.01,0-.3-.03-.6-.07-.9-.1.09.01.18.02.28.03-.15-.02-.3-.03-.45-.05.09.01.18.02.28.03-.66-.07-1.31-.12-1.97-.18-.5-.05-1-.08-1.5-.12-.57-.05-1.14-.12-1.7-.22-.94-.22-1.86-.54-2.79-.79-1.15-.31-2.31-.63-3.47-.98-.86-.28-1.73-.57-2.57-.94-.53-.25-1.07-.52-1.61-.77-.61-.28-1.23-.54-1.85-.79-.68-.3-1.33-.64-1.98-1-.2-.12-.39-.25-.58-.39-.34-.26-.69-.52-1.06-.74-.32-.19-.64-.39-.96-.6-.68-.47-1.36-.94-2.04-1.42-.37-.26-.74-.51-1.11-.77-.29-.28-.61-.52-.93-.77-.12-.12-.23-.24-.36-.34.03-.19.09-.38.18-.57.02-.03.03-.06.06-.09.01-.09.03-.18.06-.27.22-.74.79-1.17,1.4-1.25.42-.34.86-.64,1.26-.98,7.56-6.3,16.43-10.34,25.78-10.36,10.62-.36,22.12,1.24,30.7,9.23,1.18,1.35.21,3.3-1.04,3.44-2.66,3.5-12.47,7.44-14.28,8.46-3.63,1.61-7.41,2.83-11.25,3.33-.06,0-.12,0-.18,0-.31.02-.62.03-.93.03,0,0,0,0-.01,0,0,0,0,0,.01,0,0,0-.02,0-.03,0-.09,0-.18,0-.28,0h.02-.04c-.08,0-.17,0-.25,0,.04,0,.08,0,.12,0-.63,0-1.27.03-1.9.04h-.01,0,0c-.08,0-.15,0-.23,0-.62,0-1.23-.02-1.85-.08Z"/>
      <path class="cls-24" d="M258.19,275.22c-1.49-.03-2.99-.04-4.48-.12-.99-.06-1.98-.16-2.97-.29-1.04-.14-2.08-.17-3.13-.19-2.05-.06-4.11-.22-6.14-.52-.47-.08-.94-.18-1.41-.3-1.04-.43-2.09-.91-3.11-1.4-.07-.07-.14-.14-.22-.19-.33-.26-.72-.39-1.12-.41-1.81-1.36-3.49-2.95-4.99-4.8-.81-.93-2.32-3.63-2.78-5.85-.15-.37-.22-.78-.16-1.19,0-.05.02-.1.03-.15.03-.74.28-1.33.83-1.65.51-.31,1.14-.29,1.63.04.49-.2,1.03-.09,1.53.03,4.1.7,8.29.51,12.42.85,7.44.27,14.89-.45,22.33-.68,6-.34,12-.63,18-1.14,2.34-.11,4.67-.22,7.01-.32.46-.03.91.05,1.28.37,1.11-.03,2.25,1.21,1.65,2.79-2.07,6.33-5.93,10.4-10.68,12.86-.47-.03-.95.06-1.41.14-.64.1-1.28.24-1.91.39-.72.17-1.43.34-2.16.49-.79.16-1.6.26-2.38.51-1.21.06-2.41.18-3.62.25-1.6.09-3.2.12-4.81.17-.85.03-1.71.06-2.56.14-.74.07-1.49.15-2.23.2-.73.03-1.46.04-2.18.04s-1.51-.01-2.26-.02Z"/>
    </g>
    <path class="cls-12" d="M330.96,203.01c-.57-2.08-1.67-3.9-3.11-5.45,2.7-1.28,5.05-3.71,6.19-6.48.26-.64-.44-1.2-.95-.77-1.29,1.09-2.9,2.12-4.48,2.48-1.75.39-3.5.53-5.2,1.09-.07.03-.12.07-.16.09-3.7-2.08-8.01-3.22-11.61-3.5-9.17-.68-17.71,5.28-19.63,14.33-.19.88.63,1.39,1.25.74,5.6-5.82,10.92-9.74,18.81-9.03,7.18.65,11.29,6.36,17.29,9.35.88.44,1.81-2.01,1.61-2.85Z"/>
    <g>
      <g>
        <path class="cls-11" d="M399.66,92.61l-12.74,136.09-12.2-.82c0-9.26-11.14-51.69-12.03-58.74,0,0-8.62-20.86-13.76-54.8-23.81.29-54.79-18.81-54.79-18.81,0,0,11.19,18.52,27.81,26.95-43,4.9-70.8-13.91-90.02-32.46,5.14,13.33,14.62,24.03,24.35,32.46-39.82-5-59.99-23.52-68.71-34.64-6.06,17.4-15.89,26.5-15.89,26.5-5.17,33.94-13.76,54.8-13.76,54.8-.79,6.57-17.92,48.84-17.95,57.37l-11.26-.11s-13.41-102.05-14.26-129.87c0,0,12.18-18.23,29.49-26.47-1.05.32-18.23,5.99-29.49,17.79,0,0,9.8-23.49,43.19-29.58C167.82,28.71,195.88,4.81,213.25,0c-11.89,12.63-15.06,20.03-15.06,20.03,0,0,25.11-19.58,81.46-17.85-16.93,4.61-25.56,11.6-26.22,12.15.95-.35,19.66-7.21,71.06,13.52,52.82,21.28,75.18,64.77,75.18,64.77Z"/>
        <path class="cls-20" d="M125.65,99s11.33-18.11,34.13-28.11c-7.03,5.94-8.17,10.72-8.17,10.72,0,0,5.74-5.22,12.04-7.1,0,0-4.39,6.96-6.92,11.45,6.49-4.2,10.8-7.25,10.8-7.25,0,0-1.43,6.96-4.01,10,3.15-1.88,4.88-4.49,4.88-4.49,0,0,.86,6.56-3.3,12.92,4.88-3.06,7.03-6.97,7.03-6.97,0,0-5.74,23.19-21.08,32.17,4.73-6.81,7.31-20.43,7.31-20.43,0,0-5.16,4.64-10.47,7.97,3.58-5.36,7.46-15.65,7.46-15.65,0,0-11.76,8.41-19.64,21.16,2.72-8.12,6.6-19.42,11.04-25.65-8.46,7.97-10.9,11.45-10.9,11.45,0,0,3.15-10.87,6.88-15.51-7.46,5.07-17.06,13.33-17.06,13.33Z"/>
        <path class="cls-20" d="M235.49,71.46s13.05-1.16,36.56,8.84c-2.72-5.65-9.46-10.29-9.46-10.29,0,0,24.09,5.07,38.57,16.23-6.88-12.61-25.52-19.42-25.52-19.42,0,0,25.81,3.04,47.6,19.42-6.45-12.03-18.21-18.84-18.21-18.84,0,0,33.7,9.13,51.76,31.88-9.46-19.71-39-43.62-64.67-51.88,22.94,1.45,40.86,14.2,40.86,14.2,0,0-12.62-16.38-24.66-20.29,11.61,1.59,19.36,9.27,19.36,9.27,0,0-18.35-24.2-60.08-23.77,0,0,12.62,1.74,19.07,7.68-13.48-2.46-20.5.14-20.5.14,0,0,13.33,2.61,19.07,7.39-11.61-1.3-24.09,2.9-24.09,2.9,0,0,20.5,1.74,38.86,13.91-23.52-6.96-44.02-3.62-44.02-3.62,0,0,13.19,2.61,18.21,6.81-12.04-2.03-22.37,0-22.37,0l8.47,3.48s-12.06-1.01-24.82,5.94Z"/>
      </g>
      <path class="cls-28" d="M373.58,192.76s-5.49-1.65-9.75-9.09c-5.7-16.22-21.15-27.84-39.31-27.81-17.48.03-32.41,10.84-38.54,26.12-1.76,1.68-5.65,3.46-6.84,3.98-2.65,1.15-5.48,1.85-8.34,2.2-.38.05-.76.07-1.14.1-2.31-.92-5.43-1.48-8.87-1.48-3.48,0-6.64.59-8.96,1.54-.96-.07-1.92-.18-2.87-.33-5.45-.88-10.66-3.19-14.52-7.2-6.48-14.59-21.1-24.76-38.09-24.74-18.19.03-33.62,11.73-39.24,28-4.23,7.4-9.69,9.05-9.69,9.05-3.07,6.17-.19,11.29-.19,11.29,5.9,2.45,9.84,8.03,11.2,10.19,6.5,14.55,21.09,24.68,38.05,24.65,19.54-.03,35.9-13.53,40.33-31.7,1.85-2.25,7.69-8.51,17.13-10.73,1.99.52,4.34.83,6.87.82,2.45,0,4.73-.3,6.67-.8,8.91,2.14,14.57,7.85,16.66,10.3,4.37,18.32,20.86,31.93,40.51,31.9,16.93-.03,31.47-10.17,37.94-24.7,1.31-2.12,5.25-7.81,11.21-10.3,0,0,2.87-5.14-.22-11.29ZM196.48,234.33c-20.25.03-36.69-16.36-36.72-36.61-.03-20.25,16.36-36.69,36.61-36.73s36.69,16.36,36.72,36.61c.03,20.25-16.36,36.69-36.61,36.73ZM324.65,234.13c-20.25.03-36.69-16.36-36.72-36.61-.03-20.25,16.35-36.69,36.6-36.73,20.25-.03,36.69,16.36,36.72,36.61.03,20.25-16.36,36.69-36.61,36.73ZM146.19,193.54c.11-.23.2-.41.29-.61-.26,0-.51-.05-.76-.15-2.6.4-15.48,2.6-20.26,7.77l7.19.81,5.35,4.51,8.22-1.04s-2.68-5.75-.02-11.3ZM375.15,192.41c-.25.09-.5.15-.76.15.09.2.18.38.29.61,2.68,5.54.02,11.3.02,11.3l8.22,1.01,5.33-4.53,7.19-.84c-4.8-5.15-17.68-7.31-20.29-7.7Z"/>
    </g>
  </g>
</svg>