<?xml version="1.0" encoding="UTF-8"?>
<svg id="Layer_2" data-name="Layer 2" xmlns="http://www.w3.org/2000/svg" viewBox="0 0 328.15 718.47">
  <defs>
    <style>
      .cls-1 {
        fill: #f6bb9f;
      }

      .cls-1, .cls-2, .cls-3, .cls-4, .cls-5, .cls-6, .cls-7, .cls-8, .cls-9, .cls-10, .cls-11, .cls-12, .cls-13, .cls-14, .cls-15, .cls-16, .cls-17, .cls-18, .cls-19, .cls-20, .cls-21, .cls-22, .cls-23, .cls-24, .cls-25, .cls-26, .cls-27 {
        stroke-width: 0px;
      }

      .cls-2 {
        fill: #eff0f0;
      }

      .cls-3 {
        fill: #e2e3e3;
      }

      .cls-4 {
        fill: #395b9a;
      }

      .cls-5 {
        fill: #392921;
      }

      .cls-6 {
        fill: #436bb2;
      }

      .cls-7 {
        fill: #6a5c4a;
      }

      .cls-8 {
        fill: #fdefd5;
      }

      .cls-9 {
        fill: #37221f;
      }

      .cls-10 {
        fill: #331c19;
      }

      .cls-11 {
        fill: #291405;
      }

      .cls-12, .cls-23 {
        fill: #e9a690;
      }

      .cls-13 {
        fill: #dadbdc;
      }

      .cls-14 {
        fill: #8f9195;
      }

      .cls-15 {
        fill: #007c30;
      }

      .cls-16 {
        fill: #5f4c3f;
      }

      .cls-17 {
        fill: #412d1b;
      }

      .cls-18 {
        fill: #563531;
      }

      .cls-19 {
        fill: #f9cb9f;
      }

      .cls-20 {
        fill: #3e3a39;
      }

      .cls-21 {
        fill: #f6c2a7;
      }

      .cls-22 {
        fill: #f3a880;
      }

      .cls-23 {
        fill-rule: evenodd;
      }

      .cls-24 {
        fill: #fff;
      }

      .cls-25 {
        fill: #e5e6e7;
      }

      .cls-26 {
        fill: #211613;
      }

      .cls-27 {
        fill: #796a56;
      }
    </style>
  </defs>
  <g id="_Ï_h_1" data-name="¹Ï¼h_1">
    <path class="cls-3" d="M85.74,473.67c2.56-3.26,29.22-73.58,32.16-88.06,4.82-23.77-10.77-20.84-21.63-18.27-9.21,2.17-12.7,12.1-13.67,13.1-8.01,8.24-23.99,65.38-24.01,66.03,0,0,1.48,1.84,3.77,4.57,6.99,8.37,21.45,25.09,23.38,22.62Z"/>
    <path class="cls-3" d="M82.59,496.93s-30.18-1.14-26.44-43.91c0,0,5.53-16.32,7.57-24.34l23.8,11.26-4.92,56.99Z"/>
    <g>
      <g>
        <path class="cls-11" d="M183.34,689.57c0,1.92-.03,3.63.17,5.25,5.88,4.97,24.62,18.62,36.57,21.73,11.96,3.08,38.63,3.19,43.12-4.93.1-3.98.78-5.29,0-7.48-.13-.44-.34-.88-.64-1.29-.97-1.43-1.71-2.25-3.69-3.21-33.38-15.79-72.71-16.97-74.59-15.11-.34.33-.54.82-.67,1.43-.27,1.04-.27,2.36-.27,3.63Z"/>
        <path class="cls-16" d="M183.34,689.57c0,1.92-.03,3.63.17,5.25,5.88,4.97,24.62,18.62,36.57,21.73,11.96,3.08,39.86,2.16,43.12-4.93.1-3.98.78-5.29,0-7.48-6.31,6.48-27.84,5.77-37.78,4.39-10.51-1.43-17.19-4.86-28.92-12.74-6.78-4.56-10.55-7.69-12.9-9.83-.27,1.04-.27,2.36-.27,3.63Z"/>
      </g>
      <path class="cls-17" d="M219.9,646.59c-.68,20.89,9.23,28.87,9.24,28.88,6.67,6.95,10.87,10.62,20.13,16.32,1.65,1.02,3.06,1.9,4.3,2.72,5.58,3.68,7.32,5.74,7.69,9.06-9.03,5.08-29.49,4.12-39.76,2.61-1.61-.22-2.96-.47-3.96-.71-7.59-1.76-28.55-15.9-32.17-19.91-.23-.64-.36-1.61-.4-2.78h0c-2.95-2.21.54-8.47,1.33-15.25.79-6.79,34.29-41.82,33.61-20.93Z"/>
    </g>
    <g>
      <g>
        <path class="cls-11" d="M142.44,689.57c0,1.92.03,3.63-.17,5.25-5.88,4.97-24.62,18.62-36.57,21.73-11.96,3.08-38.63,3.19-43.12-4.93-.1-3.98-.78-5.29,0-7.48.13-.44.34-.88.64-1.29.97-1.43,1.71-2.25,3.69-3.21,33.38-15.79,72.71-16.97,74.59-15.11.34.33.54.82.67,1.43.27,1.04.27,2.36.27,3.63Z"/>
        <path class="cls-16" d="M142.44,689.57c0,1.92.03,3.63-.17,5.25-5.88,4.97-24.62,18.62-36.57,21.73-11.96,3.08-39.86,2.16-43.12-4.93-.1-3.98-.78-5.29,0-7.48,6.31,6.48,27.84,5.77,37.78,4.39,10.51-1.43,17.19-4.86,28.91-12.74,6.78-4.56,10.55-7.69,12.9-9.83.27,1.04.27,2.36.27,3.63Z"/>
      </g>
      <path class="cls-17" d="M105.89,646.59c.68,20.89-9.23,28.87-9.24,28.88-6.67,6.95-10.87,10.62-20.13,16.32-1.65,1.02-3.06,1.9-4.3,2.72-5.57,3.68-7.32,5.74-7.69,9.06,9.03,5.08,29.49,4.12,39.76,2.61,1.61-.22,2.96-.47,3.96-.71,7.59-1.76,28.55-15.9,32.17-19.91.23-.64.36-1.61.4-2.78h0c2.95-2.21-.54-8.47-1.33-15.25-.79-6.79-34.29-41.82-33.61-20.93Z"/>
    </g>
    <g>
      <path class="cls-27" d="M97.8,670.79c10.12,8.99,13.81,11.76,28.29,9.65,6.73-.96,13.02-2.96,17.97-5.88-1.34-3.97-1.78-11.14-1.78-17.49s.97-23.99,2.21-32.36c1.67-10.85,6.73-14,6.73-25.57s8.86-21.03,16.45-50.47c.05.24.11.48.16.72v.05c3.55,15.29,11.72,43.44,13.92,56.01,2.21,12.76,1.45,28.72,2.91,41.34.86,7.41,3.55,16.15.43,26.53,14.42,10.32,19.86,8.75,33.37,2.82,3.71-1.63,6.56-3.58,8.13-5.74-2.26-3.97-2.43-19.5-2.43-23.51s1.45-17.78.11-29.73c-1.35-11.95,9.23-115.8,9.23-115.8-8.88-3.78-23.73-6.69-40.47-8.32-33.26-3.25-73.67-1.43-88.2,8.84-.43,2.87-.75,6.55-1.13,10.75,0,.38-.05.81-.11,1.19-1.83,23.71,1.01,56.67.04,66.42-.75,7.41,2.58,17.6,1.82,28.4-.59,8.46-3.39,15.93-2.69,23.08.89,9.16-.72,22.2-4.95,39.05Z"/>
      <path class="cls-7" d="M126.08,680.44c6.73-.96,13.02-2.96,17.97-5.88-1.34-3.97-1.78-11.14-1.78-17.49s.97-23.99,2.21-32.36c1.67-10.85,6.73-14,6.73-25.57s8.86-21.03,16.45-50.47c.05.24.11.48.16.72.11-.96.65-1.67,2.48-2.53,3.66-1.72,6.57-4.16,9.74-6.83.48-.38,1.08-.91,1.02-1.48,0-1.24-2.05-1.48-3.34-1.15-3.77.96-7.16,2.82-10.92,3.54-1.99.38-3.98.48-5.87,1.05-3.5,1.05-6.08,3.82-7.21,6.93-1.45,3.87-1.35,5.05-2.21,9.16-1.29,6.12-3.81,9.99-5.05,16.16-6.24,31.64-15.22,28.16-13.66,41.73,1.56,13.57,0,27.48-3.12,38.28-2.74,9.56-7.75,16.11-3.61,26.19Z"/>
      <path class="cls-7" d="M103.57,513.84c.81.38,1.78.81,2.91,1.19,3.61,1.24,8.83,2.44,14.69,3.11,5.92.57,11.25.48,15.12.1,1.88-.19,3.44-.38,4.52-.57,1.02-.14,1.61-.24,1.61-.29s-.59-.05-1.67-.1c-1.08,0-2.64-.05-4.52-.19-3.82-.24-8.99-.57-14.69-1.34-5.65-.76-10.71-1.82-14.42-2.53-1.35-.24-2.48-.43-3.44-.57,0,.38-.05.81-.11,1.19ZM184.83,512.5c0,.1.59.24,1.67.48,1.02.43,2.64.67,4.57,1.05,3.98.67,9.52,1.05,15.61.81,4.41-.14,8.5-.57,11.89-1.15-2.64,3.63-3.44,6.45-2.91,9.46-1.99.33-4.2.67-6.51,1-4.57.57-8.77.91-11.78,1.48-3.07.43-4.95.96-4.95,1.05s1.94.48,5.06.62c3.07.29,7.37.14,12.11-.48,2.42-.33,4.68-.81,6.73-1.34.48,1.29,1.13,2.68,1.94,4.25,3.82,7.17,8.56,21.25,6.19,28.04-2.37,6.74-9.33,52.25-7.45,60.28,1.88,8.03,4.74,7.17.97,16.06-3.34,7.74-7.63,28.68.5,42.01,3.71-1.63,6.56-3.58,8.13-5.74-2.26-3.97-2.43-19.5-2.43-23.51s1.45-17.78.11-29.73c-1.35-11.95,9.23-115.8,9.23-115.8-8.88-3.78-23.73-6.69-40.47-8.32l2.42,6.69c11.35,1.72,31.7,3.82,25.24,11.33-3.82.24-8.72.53-14.1.72-5.92.1-11.25.24-15.34.29-1.94.14-3.55.1-4.68.33-1.13,0-1.72.05-1.72.1Z"/>
    </g>
    <path class="cls-1" d="M171.64,297.63c-11.16,5.42-26.49,1.21-28.35,0,10.84,8.41,18.81,7.2,28.35,0Z"/>
    <g>
      <path class="cls-2" d="M89.14,482.1c.9,6.66,12.42,18.37,12.88,18.61,25.53,13.35,33.13,8.47,64.5,8.47,27.18,0,45.75,2.04,68.76-8.18.13-.06,6.18-10.59,6.22-10.73,4.96-17.66-4.23-98.76-9.5-120.63-19.82-15.99-36.87-14.4-50.98-16.34-22.39-.47-28.85-2.19-41.42-.9-7.96.82-29.68,4.74-44.87,16.43-3.3,23.98-7.32,100.66-5.61,113.27Z"/>
      <path class="cls-20" d="M103.5,514.82c.4-5-.43-8.76,1-11.85l128.98-1.19s-.64,8.94-1.81,13.74l-128.17-.7Z"/>
      <rect class="cls-14" x="151.21" y="501" width="23.36" height="15.32"/>
      <path class="cls-13" d="M198.99,353.8c-7.42-5.01-15.22-5.71-34.18-7.36-15.41-1.34-33.49,3.19-38.95,11.08-4.34,20.13,17.62,36.14,21.02,35.74,4.92-.58,14.57-24.16,17.66-24.03,3.1.13,9.63,26.81,15.73,24.59,6.1-2.23,25.91-34.71,18.72-40.02Z"/>
      <path class="cls-15" d="M168.45,380.13c-3.11,1.53-6.74,1.48-10.19-.67-6.19,40.99-4.74,63.83-13.19,86.92,4.7,6.32,14.23,19.1,14.23,19.1,0,0,10.38-11.33,15.91-17.8,2.05-28.04-5.3-53.5-6.75-87.54Z"/>
      <path class="cls-15" d="M152.95,382.92c1.92,2.8,10.97,4.45,10.97,4.45,0,0,8.46-1.48,10.38-4.28,1.4-2.04-.67-11.68-.67-11.68l-20.68,1s-1.4,8.47,0,10.51Z"/>
      <path class="cls-6" d="M89.14,482.1c.9,6.66,12.42,18.37,12.88,18.61,25.53,13.35,33.13,8.47,64.5,8.47,27.18,0,45.75,2.04,68.76-8.18.13-.06,6.18-10.59,6.22-10.73,4.96-17.66-4.23-98.76-9.5-120.63-17.75-11.51-18.8-12.55-32.9-14.49-4.94-.1-16.2,72.81-35.55,72.81-20.8,0-31.47-73.83-31.47-73.83-7.96.82-22.15,3.03-37.34,14.71-3.3,23.98-7.32,100.66-5.61,113.27Z"/>
      <path class="cls-4" d="M203.52,354.98l-6.87-.86s-11.17,37.65-12.45,41.23c-1.29,3.58-11.88,28.35-19.61,31.35-.78.3-5.05-.73-5.87-1.72-1.61-1.93-18.32-32.78-18.61-36.36-.29-3.58-7.52-35.82-8.59-36.69-1.07-.88-6.74,3.25-6.74,3.25,0,0,8.32,35.45,11.04,44.76,2.72,9.31,16.18,33.5,25.63,35.07,9.45,1.57,16.32-8.88,22.62-20.33,6.3-11.45,19.47-51.97,19.47-59.7Z"/>
      <path class="cls-25" d="M198.93,351.4c-3.49-6.47-20.49-9.8-35.88-10.18-16.22-.4-30.54,4.57-35.64,13.84-5.05,9.2,16.94,32.68,20.45,32.95,4.47.34,13.18-20.92,16.29-20.88,3.11.04,9.95,22.15,16.12,19.41,6.17-2.74,23.93-25.35,18.66-35.13Z"/>
      <path class="cls-1" d="M132.95,355.19c9.32-1.12,11.95-14.22,11.14-27.16h37.61c-.81,12.94,1.82,26.04,11.14,27.16-20.36,19.01-48.69,14.54-59.89,0Z"/>
    </g>
    <g>
      <path class="cls-1" d="M267.38,259.01c0,15.21,19.26,14.99,34.03,14.99s26.74-12.33,26.74-27.55-11.97-27.55-26.74-27.55-34.03,24.89-34.03,40.11Z"/>
      <path class="cls-22" d="M315.09,238.4c-4.71-5.47-29.93-12.76-39.5,21.42,5.01-10.94,17.93-11.24,18.69-5.17,1.06-4.71-4.1-7.75-8.96-6.53,2.13-8.66,18.53-16.71,29.78-9.72Z"/>
    </g>
    <g>
      <path class="cls-1" d="M60.77,259.01c0,15.21-19.26,14.99-34.03,14.99S0,261.67,0,246.45s11.97-27.55,26.74-27.55,34.03,24.89,34.03,40.11Z"/>
      <path class="cls-22" d="M13.07,238.4c4.71-5.47,29.93-12.76,39.5,21.42-5.01-10.94-17.93-11.24-18.69-5.17-1.06-4.71,4.1-7.75,8.96-6.53-2.13-8.66-18.53-16.71-29.78-9.72Z"/>
    </g>
    <path class="cls-19" d="M121.01,50.78c-20.66,4.86-60.77,38.28-65.02,76.57-4.25,38.28-9.12,70.49-12.76,106.95-3.65,36.46,6.08,65.02,59.55,83.86,21.31,7.51,37.31,12.12,48.85,14.95,2.74.67,5.52,1.08,8.34,1.26h0c4.75.29,9.52-.11,14.14-1.24,11.55-2.83,27.57-7.45,48.92-14.97,53.48-18.84,63.2-47.4,59.55-83.86-3.65-36.46-4.39-69.35-12.76-106.95-9.52-42.74-44.36-71.71-65.02-76.57h-83.79Z"/>
    <g>
      <path class="cls-1" d="M149.5,239.91c3.62,2.05,9.97,3.28,9.97,3.28,0,0,6.34-1.23,9.97-3.28,3.62-2.05,6.49-1.64,6.19,1.64-.3,3.28-6.47,3.69-8.07,5.47-1.6,1.78-5.22,4.92-8.09,4.92s-6.49-3.14-8.09-4.92c-1.6-1.78-7.77-2.19-8.07-5.47-.3-3.28,2.57-3.69,6.19-1.64Z"/>
      <path class="cls-8" d="M167.21,239.28c-.1.12-3.85,2-8.61,1.69-4.76-.31-8.44-2.36-7.25-3.85,1.19-1.49,20.05-2.82,15.86,2.15Z"/>
    </g>
    <g>
      <ellipse class="cls-24" cx="214.04" cy="198.01" rx="17.76" ry="21.32"/>
      <ellipse class="cls-24" cx="107.94" cy="198.01" rx="17.76" ry="21.32"/>
      <ellipse class="cls-10" cx="215.05" cy="198.01" rx="13.17" ry="21.32"/>
      <path class="cls-10" d="M231.16,194.19c-.41-.58-4.36-14.81-16.79-14.48-12.43.33-18.09,13.77-18.09,13.77,0,0,1.73-17.45,18.77-19.67,17.04-2.22,21.24,17.94,20.41,19.34-.82,1.4-4.3,1.04-4.3,1.04Z"/>
      <path class="cls-24" d="M205.15,189.51c0-1.77,1.44-3.21,3.21-3.21s3.21,1.44,3.21,3.21-1.44,3.21-3.21,3.21-3.21-1.44-3.21-3.21Z"/>
    </g>
    <path class="cls-5" d="M239.81,175.94s-18.04-11.86-27.41-13.96c-9.37-2.1-19.79-4.33-20.75-8.27-.95-3.93,3.43-17.27,12.04-16.18,8.61,1.08,25.63,7.38,35,19.18,9.37,11.8,6.73,21.22,1.12,19.22Z"/>
    <g>
      <ellipse class="cls-10" cx="106.94" cy="198.01" rx="13.17" ry="21.32"/>
      <path class="cls-10" d="M90.82,194.19c.41-.58,4.36-14.81,16.79-14.48,12.43.33,18.09,13.77,18.09,13.77,0,0-1.73-17.45-18.77-19.67-17.04-2.22-21.23,17.94-20.41,19.34.82,1.4,4.3,1.04,4.3,1.04Z"/>
      <path class="cls-24" d="M103.04,189.51c0-1.77-1.44-3.21-3.21-3.21s-3.21,1.44-3.21,3.21,1.44,3.21,3.21,3.21,3.21-1.44,3.21-3.21Z"/>
    </g>
    <path class="cls-5" d="M81.83,174.55s18.79-10.61,28.28-12.08c9.49-1.47,20.04-2.99,21.26-6.85,1.22-3.86-2.26-17.46-10.92-16.96-8.66.5-26.07,5.64-36.21,16.78s-8.15,20.72-2.41,19.11Z"/>
    <g>
      <path class="cls-23" d="M142.42,267.28c-.86.65-2.08.47-2.73-.39-.64-.86-.47-2.08.39-2.73,2.08-1.55,4.79-2.8,7.89-3.61,2.92-.76,6.21-1.16,9.67-1.06,3.45.09,6.72.66,9.6,1.59,3.05.98,5.67,2.37,7.67,4.03.83.69.93,1.92.25,2.74-.69.83-1.92.93-2.74.25-1.61-1.35-3.8-2.49-6.37-3.32-2.53-.81-5.42-1.31-8.52-1.39-3.09-.09-6.01.25-8.58.93-2.6.68-4.85,1.7-6.53,2.96Z"/>
      <path class="cls-23" d="M152.37,272.72c-1.07-.15-2.05.6-2.2,1.66-.15,1.07.6,2.05,1.66,2.2.96.14,1.96.24,2.99.29,1.02.06,2.04.07,3.06.04.99-.03,2-.1,3.04-.21h0c1.01-.11,2-.26,2.97-.45,1.05-.21,1.74-1.23,1.53-2.28-.21-1.05-1.23-1.74-2.28-1.53-.84.17-1.71.3-2.6.39h-.04s0,0,0,0c-.85.09-1.76.15-2.74.18-.93.02-1.85.01-2.73-.03-.89-.05-1.79-.14-2.66-.26Z"/>
    </g>
    <path class="cls-3" d="M174.19,457.77c.95-9.26,29.58-68.81,35.85-81.5,10.52-21.26,21.32-10.38,28.6-2.36,6.18,6.8,3.45,16.53,3.22,17.85-2.56,15.01-20.01,64.5-20.25,65.09-6.52,16.13-18.79,21.34-22.29,22.22-10.73,2.69-25.45-18.31-25.14-21.3Z"/>
    <path class="cls-21" d="M194.95,453.87s-.76,5.74-1.13,11.99c-.24,3.95-10.22,8.33-13.61,9.22-2.89.75-5.31,1.93-7.62,3.08-.59.3-1.17.59-1.75.88-5.44,2.69-10.68,4.64-20.33-.19l-1.26-7.56-.55-9.12s7.44-4,20.49-6.32c.54-.09,1.1-.18,1.67-.28.58-.09,1.15-.18,1.72-.27,13.63-1.97,22.38-1.44,22.38-1.44Z"/>
    <path class="cls-3" d="M79.81,458.75c.17-.05.36-.1.53-.14,13.51-3.06,75.47-4.8,75.47-4.8,8.11,5.02,3.83,21.31,5.43,26.45.9,2.84,1.06,4.46,1.06,4.46h0c-.1.03-39.23,8.62-48.85,10.08-21,3.19-40.65,3.87-45.98-3.6-5.25-7.35-1.08-28.99,12.34-32.45Z"/>
    <path class="cls-12" d="M156.66,345.72c.21-1.12.51-2.23.91-3.3,1.27-3.39,3.21-6.48,5.03-9.61.8-1.39,1.58-3.17.68-4.5-.93-1.36-2.96-1.24-4.55-.78-2.69.79-5.11,2.31-7.21,4.15-1.32,1.16-2.38,2.65-3.66,3.86-7.61-8.28-17.71-13.99-28.17-18.19-1.32-.53-2.73-1.05-4.14-.82-1.4.23-2.75,1.49-2.52,2.91.17,1.1,1.17,1.86,2.09,2.49,3.44,2.37,6.89,4.74,10.33,7.12-1.07.15-2.11.42-3.06.83-.11.05-.22.09-.33.15-2.09.99-4.02,3.18-5.52,4.91-2.8,3.24-4.95,7.24-5.12,11.52-.02.53,0,1.06.05,1.59.35,3.77,2.44,7.43,5.86,8.99,1.81.83,4.19.87,5.7-.29,1.25,2.47,2.3,5.05,3.14,7.66.11.33.21.66.31.98,3,9.88,5.31,21.33,8.62,31.12,1.66,4.89,3.35,9.71,5.16,14.44,3.57,9.34,7.63,18.39,12.93,27.16.81,1.34,1.67,2.66,2.57,3.95,3.74,5.36,8.27,10.22,13.47,14.05,9.21-10.29,15.49-23.19,17.89-36.79-1.06-2.07-2.12-4.15-3.18-6.23-2.8-5.5-5.6-11-8.4-16.49-3.71-7.28-7.42-14.56-11.13-21.84-1.23-2.42-2.47-4.85-3.6-7.32-1.05-2.32-2.01-4.67-2.78-7.09-.28-.88-.54-1.77-.77-2.66-.46-1.81-.78-3.71-.91-5.62-.15-2.13-.07-4.28.32-6.37Z"/>
    <path class="cls-3" d="M163.88,472.51c-.12-.18-.24-.37-.35-.55-8.26-14.1-37.45-97.54-37.45-97.54,2.75-10.91,34.4-13.28,34.4-13.28l3.2,9.34c.07.1,23.67,41.05,28.75,51.35,11.07,22.48,18.84,44.34,12.34,52.99-6.39,8.52-32.21,11.55-40.89-2.31Z"/>
    <g>
      <g>
        <path class="cls-9" d="M20.28,92.61l12.74,136.09,12.2-.82c0-9.26,11.14-51.69,12.03-58.74,0,0,8.62-20.86,13.76-54.8,23.81.29,54.79-18.81,54.79-18.81,0,0-11.19,18.52-27.81,26.95,43,4.9,70.8-13.91,90.02-32.46-5.14,13.33-14.62,24.03-24.35,32.46,39.82-5,59.99-23.52,68.71-34.64,6.06,17.4,15.89,26.5,15.89,26.5,5.17,33.94,13.76,54.8,13.76,54.8.79,6.57,17.92,48.84,17.95,57.37l11.26-.11s13.41-102.05,14.26-129.87c0,0-12.18-18.23-29.49-26.47,1.05.32,18.23,5.99,29.49,17.79,0,0-9.8-23.49-43.19-29.58C252.13,28.71,224.07,4.81,206.69,0c11.89,12.63,15.06,20.03,15.06,20.03,0,0-25.11-19.58-81.46-17.85,16.93,4.61,25.56,11.6,26.22,12.15-.95-.35-19.66-7.21-71.06,13.52C42.64,49.13,20.28,92.61,20.28,92.61Z"/>
        <path class="cls-18" d="M294.29,99s-11.33-18.11-34.13-28.11c7.03,5.94,8.17,10.72,8.17,10.72,0,0-5.74-5.22-12.04-7.1,0,0,4.39,6.96,6.92,11.45-6.49-4.2-10.8-7.25-10.8-7.25,0,0,1.43,6.96,4.01,10-3.15-1.88-4.88-4.49-4.88-4.49,0,0-.86,6.56,3.3,12.92-4.88-3.06-7.03-6.98-7.03-6.98,0,0,5.74,23.19,21.08,32.17-4.73-6.81-7.31-20.43-7.31-20.43,0,0,5.16,4.64,10.47,7.97-3.58-5.36-7.46-15.65-7.46-15.65,0,0,11.76,8.41,19.64,21.16-2.72-8.12-6.6-19.42-11.04-25.65,8.46,7.97,10.9,11.45,10.9,11.45,0,0-3.15-10.87-6.88-15.51,7.46,5.07,17.06,13.33,17.06,13.33Z"/>
        <path class="cls-18" d="M184.46,71.46s-13.05-1.16-36.56,8.84c2.72-5.65,9.46-10.29,9.46-10.29,0,0-24.09,5.07-38.57,16.23,6.88-12.61,25.52-19.42,25.52-19.42,0,0-25.81,3.04-47.6,19.42,6.45-12.03,18.21-18.84,18.21-18.84,0,0-33.7,9.13-51.76,31.88,9.46-19.71,39-43.62,64.67-51.88-22.94,1.45-40.86,14.2-40.86,14.2,0,0,12.62-16.38,24.66-20.29-11.61,1.59-19.36,9.27-19.36,9.27,0,0,18.35-24.2,60.08-23.77,0,0-12.62,1.74-19.07,7.68,13.48-2.46,20.5.14,20.5.14,0,0-13.33,2.61-19.07,7.39,11.61-1.3,24.09,2.9,24.09,2.9,0,0-20.5,1.74-38.86,13.91,23.52-6.96,44.02-3.62,44.02-3.62,0,0-13.19,2.61-18.21,6.81,12.04-2.03,22.37,0,22.37,0l-8.47,3.48s12.06-1.01,24.82,5.94Z"/>
      </g>
      <path class="cls-26" d="M46.14,204.05c5.96,2.49,9.9,8.18,11.21,10.3,6.47,14.53,21.01,24.67,37.94,24.7,19.66.03,36.14-13.58,40.51-31.9,2.09-2.45,7.75-8.16,16.66-10.3,1.95.5,4.23.8,6.67.8,2.53,0,4.88-.3,6.87-.82,9.44,2.22,15.28,8.48,17.13,10.73,4.44,18.17,20.8,31.67,40.33,31.7,16.96.03,31.56-10.1,38.05-24.65,1.36-2.16,5.29-7.74,11.2-10.19,0,0,2.88-5.13-.19-11.29,0,0-5.46-1.65-9.69-9.05-5.62-16.27-21.06-27.97-39.24-28-16.99-.03-31.61,10.14-38.09,24.74-3.86,4.01-9.08,6.32-14.52,7.2-.95.15-1.91.25-2.87.33-2.32-.95-5.48-1.54-8.96-1.54-3.44,0-6.56.56-8.87,1.48-.38-.04-.76-.06-1.14-.1-2.86-.35-5.69-1.05-8.34-2.2-1.18-.52-5.07-2.31-6.84-3.98-6.13-15.28-21.06-26.09-38.54-26.12-18.16-.03-33.61,11.59-39.31,27.81-4.26,7.44-9.75,9.09-9.75,9.09-3.09,6.16-.22,11.29-.22,11.29ZM186.86,197.61c.03-20.25,16.47-36.64,36.72-36.61,20.25.03,36.64,16.48,36.61,36.73-.03,20.25-16.47,36.64-36.72,36.61-20.25-.03-36.64-16.48-36.61-36.73ZM58.69,197.4c.03-20.25,16.47-36.64,36.72-36.61,20.25.03,36.64,16.48,36.6,36.73-.03,20.25-16.47,36.64-36.72,36.61-20.25-.03-36.64-16.48-36.61-36.73ZM273.74,204.84l8.22,1.04,5.35-4.51,7.19-.81c-4.78-5.17-17.66-7.37-20.26-7.77-.25.09-.5.15-.76.15.09.2.18.38.29.61,2.66,5.55-.02,11.3-.02,11.3ZM24.51,200.12l7.19.84,5.33,4.53,8.22-1.01s-2.66-5.76.02-11.3c.11-.23.2-.41.29-.61-.26,0-.51-.06-.76-.15-2.6.39-15.49,2.55-20.29,7.7Z"/>
    </g>
  </g>
</svg>